<?xml version="1.0" encoding="UTF-8" standalone="no"?>
<!DOCTYPE svg PUBLIC "-//W3C//DTD SVG 1.1//EN"
 "http://www.w3.org/Graphics/SVG/1.1/DTD/svg11.dtd">
<!-- Generated by graphviz version 2.43.0 (0)
 -->
<!-- Title: %3 Pages: 1 -->
<svg width="906pt" height="522pt"
 viewBox="0.00 0.00 906.00 522.00" xmlns="http://www.w3.org/2000/svg" xmlns:xlink="http://www.w3.org/1999/xlink">
<g id="graph0" class="graph" transform="scale(1 1) rotate(0) translate(4 518)">
<title>%3</title>
<polygon fill="white" stroke="transparent" points="-4,4 -4,-518 902,-518 902,4 -4,4"/>
<g id="clust1" class="cluster">
<title>cluster_/SM_ROOT</title>
<polygon fill="none" stroke="transparent" points="8,-8 8,-506 890,-506 890,-8 8,-8"/>
</g>
<g id="clust2" class="cluster">
<title>cluster_/SM_ROOT/__outcomes__</title>
<path fill="transparent" stroke="#ffffff" d="M786,-457C786,-457 832,-457 832,-457 838,-457 844,-463 844,-469 844,-469 844,-483 844,-483 844,-489 838,-495 832,-495 832,-495 786,-495 786,-495 780,-495 774,-489 774,-483 774,-483 774,-469 774,-469 774,-463 780,-457 786,-457"/>
</g>
<g id="clust3" class="cluster">
<title>cluster_/SM_ROOT/SETUP</title>
<path fill="gray" stroke="#000000" stroke-width="2" d="M275,-278C275,-278 349,-278 349,-278 355,-278 361,-284 361,-290 361,-290 361,-310 361,-310 361,-316 355,-322 349,-322 349,-322 275,-322 275,-322 269,-322 263,-316 263,-310 263,-310 263,-290 263,-290 263,-284 269,-278 275,-278"/>
</g>
<g id="clust4" class="cluster">
<title>cluster_/SM_ROOT/EXECUTE_GRASP</title>
<path fill="gray" stroke="#000000" stroke-width="2" d="M28,-364C28,-364 204,-364 204,-364 210,-364 216,-370 216,-376 216,-376 216,-396 216,-396 216,-402 210,-408 204,-408 204,-408 28,-408 28,-408 22,-408 16,-402 16,-396 16,-396 16,-376 16,-376 16,-370 22,-364 28,-364"/>
</g>
<g id="clust5" class="cluster">
<title>cluster_/SM_ROOT/PLACEMENT</title>
<path fill="gray" stroke="#000000" stroke-width="2" d="M572,-454C572,-454 704,-454 704,-454 710,-454 716,-460 716,-466 716,-466 716,-486 716,-486 716,-492 710,-498 704,-498 704,-498 572,-498 572,-498 566,-498 560,-492 560,-486 560,-486 560,-466 560,-466 560,-460 566,-454 572,-454"/>
</g>
<!-- /SM_ROOT/__proxy__ -->
<g id="node1" class="node">
<title>/SM_ROOT/__proxy__</title>
<g id="a_node1"><a xlink:href="/SM_ROOT" xlink:title="SM_ROOT">
<text text-anchor="middle" x="472" y="-381.6" font-family="Times,serif" font-size="18.00">SM_ROOT</text>
</a>
</g>
</g>
<!-- /SM_ROOT/SETUP/__proxy__ -->
<g id="node3" class="node">
<title>/SM_ROOT/SETUP/__proxy__</title>
<g id="a_node3"><a xlink:href="/SM_ROOT/SETUP" xlink:title="SETUP">
<text text-anchor="middle" x="312" y="-295.6" font-family="Times,serif" font-size="18.00">SETUP</text>
</a>
</g>
</g>
<!-- /SM_ROOT/__proxy__&#45;&gt;/SM_ROOT/SETUP/__proxy__ -->
<g id="edge18" class="edge">
<title>/SM_ROOT/__proxy__&#45;&gt;/SM_ROOT/SETUP/__proxy__</title>
<g id="a_edge18"><a xlink:href="/SM_ROOT/__proxy__::/SM_ROOT/SETUP">
<path fill="none" stroke="black" stroke-width="2" d="M447,-371.88C424.06,-359.83 389.43,-341.65 360.99,-326.72"/>
<polygon fill="black" stroke="black" stroke-width="2" points="362.48,-323.55 352,-322 359.22,-329.75 362.48,-323.55"/>
</a>
</g>
</g>
<!-- /SM_ROOT:end -->
<g id="node2" class="node">
<title>/SM_ROOT:end</title>
<g id="a_node2"><a xlink:href="/SM_ROOT:end">
<path fill="#fe464f" stroke="#780006" d="M828.67,-487C828.67,-487 789.33,-487 789.33,-487 785.67,-487 782,-483.33 782,-479.67 782,-479.67 782,-472.33 782,-472.33 782,-468.67 785.67,-465 789.33,-465 789.33,-465 828.67,-465 828.67,-465 832.33,-465 836,-468.67 836,-472.33 836,-472.33 836,-479.67 836,-479.67 836,-483.33 832.33,-487 828.67,-487"/>
</a>
</g>
<text text-anchor="middle" x="771" y="-490.4" font-family="Times,serif" font-size="12.00" fill="#780006">end</text>
</g>
<!-- /SM_ROOT/FIND_GRASP_USERINPUT -->
<g id="node4" class="node">
<title>/SM_ROOT/FIND_GRASP_USERINPUT</title>
<g id="a_node4"><a xlink:href="/SM_ROOT/FIND_GRASP_USERINPUT" xlink:title="FIND_GRASP_USERINPUT">
<ellipse fill="#c0f700" stroke="#5c7600" stroke-width="5" cx="306" cy="-214" rx="135.68" ry="18"/>
<text text-anchor="middle" x="306" y="-210.3" font-family="Times,serif" font-size="14.00">FIND_GRASP_USERINPUT</text>
</a>
</g>
</g>
<!-- /SM_ROOT/SETUP/__proxy__&#45;&gt;/SM_ROOT/FIND_GRASP_USERINPUT -->
<g id="edge1" class="edge">
<title>/SM_ROOT/SETUP/__proxy__&#45;&gt;/SM_ROOT/FIND_GRASP_USERINPUT</title>
<g id="a_edge1"><a xlink:href="/SM_ROOT/SETUP:setup_succeeded:/SM_ROOT/FIND_GRASP_USERINPUT">
<path fill="none" stroke="black" stroke-width="2" d="M310.5,-278C309.73,-267.15 308.77,-253.78 307.94,-242.16"/>
<polygon fill="black" stroke="black" stroke-width="2" points="311.43,-241.83 307.22,-232.1 304.44,-242.32 311.43,-241.83"/>
</a>
</g>
<g id="a_edge1&#45;label"><a xlink:href="/SM_ROOT/SETUP:setup_succeeded:/SM_ROOT/FIND_GRASP_USERINPUT">
<text text-anchor="middle" x="258.37" y="-258.57" font-family="Times,serif" font-size="12.00">setup_succeeded</text>
</a>
</g>
</g>
<!-- /SM_ROOT/FIND_GRASP -->
<g id="node5" class="node">
<title>/SM_ROOT/FIND_GRASP</title>
<g id="a_node5"><a xlink:href="/SM_ROOT/FIND_GRASP" xlink:title="FIND_GRASP">
<ellipse fill="#ffffff" stroke="#000000" stroke-width="2" cx="306" cy="-124" rx="73.39" ry="18"/>
<text text-anchor="middle" x="306" y="-120.3" font-family="Times,serif" font-size="14.00">FIND_GRASP</text>
</a>
</g>
</g>
<!-- /SM_ROOT/FIND_GRASP_USERINPUT&#45;&gt;/SM_ROOT/FIND_GRASP -->
<g id="edge2" class="edge">
<title>/SM_ROOT/FIND_GRASP_USERINPUT&#45;&gt;/SM_ROOT/FIND_GRASP</title>
<g id="a_edge2"><a xlink:href="/SM_ROOT/FIND_GRASP_USERINPUT:succeeded:/SM_ROOT/FIND_GRASP">
<path fill="none" stroke="black" stroke-width="2" d="M284.17,-196.03C278.49,-183.21 277.49,-165.38 281.17,-150.8"/>
<polygon fill="black" stroke="black" stroke-width="2" points="284.49,-151.91 284.46,-141.32 277.87,-149.62 284.49,-151.91"/>
</a>
</g>
<g id="a_edge2&#45;label"><a xlink:href="/SM_ROOT/FIND_GRASP_USERINPUT:succeeded:/SM_ROOT/FIND_GRASP">
<text text-anchor="middle" x="247.5" y="-172.28" font-family="Times,serif" font-size="12.00">succeeded</text>
</a>
</g>
</g>
<!-- /SM_ROOT/FIND_GRASP&#45;&gt;/SM_ROOT/FIND_GRASP_USERINPUT -->
<g id="edge3" class="edge">
<title>/SM_ROOT/FIND_GRASP&#45;&gt;/SM_ROOT/FIND_GRASP_USERINPUT</title>
<g id="a_edge3"><a xlink:href="/SM_ROOT/FIND_GRASP:aborted:/SM_ROOT/FIND_GRASP_USERINPUT">
<path fill="none" stroke="black" stroke-width="2" d="M306,-142.05C306,-154.34 306,-171.2 306,-185.39"/>
<polygon fill="black" stroke="black" stroke-width="2" points="302.5,-185.61 306,-195.61 309.5,-185.61 302.5,-185.61"/>
</a>
</g>
<g id="a_edge3&#45;label"><a xlink:href="/SM_ROOT/FIND_GRASP:aborted:/SM_ROOT/FIND_GRASP_USERINPUT">
<text text-anchor="middle" x="330" y="-172.44" font-family="Times,serif" font-size="12.00">aborted</text>
</a>
</g>
</g>
<!-- /SM_ROOT/FIND_GRASP&#45;&gt;/SM_ROOT/FIND_GRASP_USERINPUT -->
<g id="edge4" class="edge">
<title>/SM_ROOT/FIND_GRASP&#45;&gt;/SM_ROOT/FIND_GRASP_USERINPUT</title>
<g id="a_edge4"><a xlink:href="/SM_ROOT/FIND_GRASP:preempted:/SM_ROOT/FIND_GRASP_USERINPUT">
<path fill="none" stroke="black" stroke-width="2" d="M327.54,-141.32C333.37,-153.97 334.53,-171.76 331.01,-186.46"/>
<polygon fill="black" stroke="black" stroke-width="2" points="327.67,-185.44 327.83,-196.03 334.31,-187.65 327.67,-185.44"/>
</a>
</g>
<g id="a_edge4&#45;label"><a xlink:href="/SM_ROOT/FIND_GRASP:preempted:/SM_ROOT/FIND_GRASP_USERINPUT">
<text text-anchor="middle" x="300.5" y="-158.71" font-family="Times,serif" font-size="12.00">preempted</text>
</a>
</g>
</g>
<!-- /SM_ROOT/EXECUTE_GRASP_USERINPUT -->
<g id="node6" class="node">
<title>/SM_ROOT/EXECUTE_GRASP_USERINPUT</title>
<g id="a_node6"><a xlink:href="/SM_ROOT/EXECUTE_GRASP_USERINPUT" xlink:title="EXECUTE_GRASP_USERINPUT">
<ellipse fill="#ffffff" stroke="#000000" stroke-width="2" cx="306" cy="-34" rx="158.67" ry="18"/>
<text text-anchor="middle" x="306" y="-30.3" font-family="Times,serif" font-size="14.00">EXECUTE_GRASP_USERINPUT</text>
</a>
</g>
</g>
<!-- /SM_ROOT/FIND_GRASP&#45;&gt;/SM_ROOT/EXECUTE_GRASP_USERINPUT -->
<g id="edge5" class="edge">
<title>/SM_ROOT/FIND_GRASP&#45;&gt;/SM_ROOT/EXECUTE_GRASP_USERINPUT</title>
<g id="a_edge5"><a xlink:href="/SM_ROOT/FIND_GRASP:succeeded:/SM_ROOT/EXECUTE_GRASP_USERINPUT">
<path fill="none" stroke="black" stroke-width="2" d="M295.08,-106.03C292.35,-93.69 291.79,-76.73 293.39,-62.47"/>
<polygon fill="black" stroke="black" stroke-width="2" points="296.9,-62.64 295.03,-52.22 289.99,-61.54 296.9,-62.64"/>
</a>
</g>
<g id="a_edge5&#45;label"><a xlink:href="/SM_ROOT/FIND_GRASP:succeeded:/SM_ROOT/EXECUTE_GRASP_USERINPUT">
<text text-anchor="middle" x="261" y="-82.31" font-family="Times,serif" font-size="12.00">succeeded</text>
</a>
</g>
</g>
<!-- /SM_ROOT/EXECUTE_GRASP_USERINPUT&#45;&gt;/SM_ROOT/FIND_GRASP -->
<g id="edge6" class="edge">
<title>/SM_ROOT/EXECUTE_GRASP_USERINPUT&#45;&gt;/SM_ROOT/FIND_GRASP</title>
<g id="a_edge6"><a xlink:href="/SM_ROOT/EXECUTE_GRASP_USERINPUT:retry:/SM_ROOT/FIND_GRASP">
<path fill="none" stroke="black" stroke-width="2" d="M316.97,-52.22C319.67,-64.62 320.21,-81.6 318.58,-95.82"/>
<polygon fill="black" stroke="black" stroke-width="2" points="315.07,-95.6 316.92,-106.03 321.98,-96.73 315.07,-95.6"/>
</a>
</g>
<g id="a_edge6&#45;label"><a xlink:href="/SM_ROOT/EXECUTE_GRASP_USERINPUT:retry:/SM_ROOT/FIND_GRASP">
<text text-anchor="middle" x="335" y="-82.8" font-family="Times,serif" font-size="12.00">retry</text>
</a>
</g>
</g>
<!-- /SM_ROOT/EXECUTE_GRASP/__proxy__ -->
<g id="node7" class="node">
<title>/SM_ROOT/EXECUTE_GRASP/__proxy__</title>
<g id="a_node7"><a xlink:href="/SM_ROOT/EXECUTE_GRASP" xlink:title="EXECUTE_GRASP">
<text text-anchor="middle" x="116" y="-381.6" font-family="Times,serif" font-size="18.00">EXECUTE_GRASP</text>
</a>
</g>
</g>
<!-- /SM_ROOT/EXECUTE_GRASP_USERINPUT&#45;&gt;/SM_ROOT/EXECUTE_GRASP/__proxy__ -->
<g id="edge7" class="edge">
<title>/SM_ROOT/EXECUTE_GRASP_USERINPUT&#45;&gt;/SM_ROOT/EXECUTE_GRASP/__proxy__</title>
<g id="a_edge7"><a xlink:href="/SM_ROOT/EXECUTE_GRASP_USERINPUT:succeeded:/SM_ROOT/EXECUTE_GRASP">
<path fill="none" stroke="black" stroke-width="2" d="M280.4,-51.86C261.18,-65.23 234.87,-85.07 215,-106 181.38,-141.41 170.99,-151.02 152,-196 128.22,-252.33 120.04,-324.75 117.31,-361.43"/>
<polygon fill="black" stroke="black" stroke-width="2" points="115.82,-353.44 116.63,-364 122.58,-355.24 115.82,-353.44"/>
</a>
</g>
<g id="a_edge7&#45;label"><a xlink:href="/SM_ROOT/EXECUTE_GRASP_USERINPUT:succeeded:/SM_ROOT/EXECUTE_GRASP">
<text text-anchor="middle" x="120.49" y="-199.42" font-family="Times,serif" font-size="12.00">succeeded</text>
</a>
</g>
</g>
<!-- /SM_ROOT/EXECUTE_GRASP/__proxy__&#45;&gt;/SM_ROOT/SETUP/__proxy__ -->
<g id="edge9" class="edge">
<title>/SM_ROOT/EXECUTE_GRASP/__proxy__&#45;&gt;/SM_ROOT/SETUP/__proxy__</title>
<g id="a_edge9"><a xlink:href="/SM_ROOT/EXECUTE_GRASP:failed_to_grasp:/SM_ROOT/SETUP">
<path fill="none" stroke="black" stroke-width="2" d="M168.57,-364C195.27,-353.16 228.41,-339.43 258.83,-326.06"/>
<polygon fill="black" stroke="black" stroke-width="2" points="260.27,-329.25 268,-322 257.44,-322.85 260.27,-329.25"/>
</a>
</g>
<g id="a_edge9&#45;label"><a xlink:href="/SM_ROOT/EXECUTE_GRASP:failed_to_grasp:/SM_ROOT/SETUP">
<text text-anchor="middle" x="171.97" y="-346.79" font-family="Times,serif" font-size="12.00">failed_to_grasp</text>
</a>
</g>
</g>
<!-- /SM_ROOT/AFTER_GRASP_USERINPUT -->
<g id="node8" class="node">
<title>/SM_ROOT/AFTER_GRASP_USERINPUT</title>
<g id="a_node8"><a xlink:href="/SM_ROOT/AFTER_GRASP_USERINPUT" xlink:title="AFTER_GRASP_USERINPUT">
<ellipse fill="#ffffff" stroke="#000000" stroke-width="2" cx="312" cy="-476" rx="143.77" ry="18"/>
<text text-anchor="middle" x="312" y="-472.3" font-family="Times,serif" font-size="14.00">AFTER_GRASP_USERINPUT</text>
</a>
</g>
</g>
<!-- /SM_ROOT/EXECUTE_GRASP/__proxy__&#45;&gt;/SM_ROOT/AFTER_GRASP_USERINPUT -->
<g id="edge8" class="edge">
<title>/SM_ROOT/EXECUTE_GRASP/__proxy__&#45;&gt;/SM_ROOT/AFTER_GRASP_USERINPUT</title>
<g id="a_edge8"><a xlink:href="/SM_ROOT/EXECUTE_GRASP:end_execute_grasp:/SM_ROOT/AFTER_GRASP_USERINPUT">
<path fill="none" stroke="black" stroke-width="2" d="M162.77,-408C194,-422.02 234.87,-440.37 265.95,-454.32"/>
<polygon fill="black" stroke="black" stroke-width="2" points="264.58,-457.54 275.13,-458.45 267.44,-451.16 264.58,-457.54"/>
</a>
</g>
<g id="a_edge8&#45;label"><a xlink:href="/SM_ROOT/EXECUTE_GRASP:end_execute_grasp:/SM_ROOT/AFTER_GRASP_USERINPUT">
<text text-anchor="middle" x="161.56" y="-436.67" font-family="Times,serif" font-size="12.00">end_execute_grasp</text>
</a>
</g>
</g>
<!-- /SM_ROOT/HANDOVER -->
<g id="node9" class="node">
<title>/SM_ROOT/HANDOVER</title>
<g id="a_node9"><a xlink:href="/SM_ROOT/HANDOVER" xlink:title="HANDOVER">
<ellipse fill="#ffffff" stroke="#000000" stroke-width="2" cx="312" cy="-386" rx="67.69" ry="18"/>
<text text-anchor="middle" x="312" y="-382.3" font-family="Times,serif" font-size="14.00">HANDOVER</text>
</a>
</g>
</g>
<!-- /SM_ROOT/AFTER_GRASP_USERINPUT&#45;&gt;/SM_ROOT/HANDOVER -->
<g id="edge11" class="edge">
<title>/SM_ROOT/AFTER_GRASP_USERINPUT&#45;&gt;/SM_ROOT/HANDOVER</title>
<g id="a_edge11"><a xlink:href="/SM_ROOT/AFTER_GRASP_USERINPUT:handover:/SM_ROOT/HANDOVER">
<path fill="none" stroke="black" stroke-width="2" d="M312,-457.61C312,-445.24 312,-428.37 312,-414.22"/>
<polygon fill="black" stroke="black" stroke-width="2" points="315.5,-414.05 312,-404.05 308.5,-414.05 315.5,-414.05"/>
</a>
</g>
<g id="a_edge11&#45;label"><a xlink:href="/SM_ROOT/AFTER_GRASP_USERINPUT:handover:/SM_ROOT/HANDOVER">
<text text-anchor="middle" x="283" y="-433.95" font-family="Times,serif" font-size="12.00">handover</text>
</a>
</g>
</g>
<!-- /SM_ROOT/PLACEMENT/__proxy__ -->
<g id="node10" class="node">
<title>/SM_ROOT/PLACEMENT/__proxy__</title>
<g id="a_node10"><a xlink:href="/SM_ROOT/PLACEMENT" xlink:title="PLACEMENT">
<text text-anchor="middle" x="638" y="-471.6" font-family="Times,serif" font-size="18.00">PLACEMENT</text>
</a>
</g>
</g>
<!-- /SM_ROOT/AFTER_GRASP_USERINPUT&#45;&gt;/SM_ROOT/PLACEMENT/__proxy__ -->
<g id="edge10" class="edge">
<title>/SM_ROOT/AFTER_GRASP_USERINPUT&#45;&gt;/SM_ROOT/PLACEMENT/__proxy__</title>
<g id="a_edge10"><a xlink:href="/SM_ROOT/AFTER_GRASP_USERINPUT:placement:/SM_ROOT/PLACEMENT">
<path fill="none" stroke="black" stroke-width="2" d="M455.9,-476C489.89,-476 523.88,-476 557.87,-476"/>
<polygon fill="black" stroke="black" stroke-width="2" points="550,-479.5 560,-476 550,-472.5 550,-479.5"/>
</a>
</g>
<g id="a_edge10&#45;label"><a xlink:href="/SM_ROOT/AFTER_GRASP_USERINPUT:placement:/SM_ROOT/PLACEMENT">
<text text-anchor="middle" x="523.43" y="-466.4" font-family="Times,serif" font-size="12.00">placement</text>
</a>
</g>
</g>
<!-- /SM_ROOT/HANDOVER&#45;&gt;/SM_ROOT/SETUP/__proxy__ -->
<g id="edge12" class="edge">
<title>/SM_ROOT/HANDOVER&#45;&gt;/SM_ROOT/SETUP/__proxy__</title>
<g id="a_edge12"><a xlink:href="/SM_ROOT/HANDOVER:succeeded:/SM_ROOT/SETUP">
<path fill="none" stroke="black" stroke-width="2" d="M290.17,-368.8C284.23,-355.99 283.41,-337.95 287.71,-323.69"/>
<polygon fill="black" stroke="black" stroke-width="2" points="286.5,-332.35 288.76,-322 280.53,-328.68 286.5,-332.35"/>
</a>
</g>
<g id="a_edge12&#45;label"><a xlink:href="/SM_ROOT/HANDOVER:succeeded:/SM_ROOT/SETUP">
<text text-anchor="middle" x="253.55" y="-349.08" font-family="Times,serif" font-size="12.00">succeeded</text>
</a>
</g>
</g>
<!-- /SM_ROOT/HANDOVER&#45;&gt;/SM_ROOT/SETUP/__proxy__ -->
<g id="edge13" class="edge">
<title>/SM_ROOT/HANDOVER&#45;&gt;/SM_ROOT/SETUP/__proxy__</title>
<g id="a_edge13"><a xlink:href="/SM_ROOT/HANDOVER:preempted:/SM_ROOT/SETUP">
<path fill="none" stroke="black" stroke-width="2" d="M312,-367.6C312,-355.08 312,-338.07 312,-324.38"/>
<polygon fill="black" stroke="black" stroke-width="2" points="315.5,-332 312,-322 308.5,-332 315.5,-332"/>
</a>
</g>
<g id="a_edge13&#45;label"><a xlink:href="/SM_ROOT/HANDOVER:preempted:/SM_ROOT/SETUP">
<text text-anchor="middle" x="279.5" y="-335.06" font-family="Times,serif" font-size="12.00">preempted</text>
</a>
</g>
</g>
<!-- /SM_ROOT/HANDOVER&#45;&gt;/SM_ROOT/SETUP/__proxy__ -->
<g id="edge14" class="edge">
<title>/SM_ROOT/HANDOVER&#45;&gt;/SM_ROOT/SETUP/__proxy__</title>
<g id="a_edge14"><a xlink:href="/SM_ROOT/HANDOVER:aborted:/SM_ROOT/SETUP">
<path fill="none" stroke="black" stroke-width="2" d="M333.83,-368.8C339.77,-355.99 340.59,-337.95 336.29,-323.69"/>
<polygon fill="black" stroke="black" stroke-width="2" points="343.47,-328.68 335.24,-322 337.5,-332.35 343.47,-328.68"/>
</a>
</g>
<g id="a_edge14&#45;label"><a xlink:href="/SM_ROOT/HANDOVER:aborted:/SM_ROOT/SETUP">
<text text-anchor="middle" x="314.95" y="-349.08" font-family="Times,serif" font-size="12.00">aborted</text>
</a>
</g>
</g>
<!-- /SM_ROOT/PLACEMENT/__proxy__&#45;&gt;/SM_ROOT/AFTER_GRASP_USERINPUT -->
<g id="edge16" class="edge">
<title>/SM_ROOT/PLACEMENT/__proxy__&#45;&gt;/SM_ROOT/AFTER_GRASP_USERINPUT</title>
<g id="a_edge16"><a xlink:href="/SM_ROOT/PLACEMENT:failed_to_place:/SM_ROOT/AFTER_GRASP_USERINPUT">
<path fill="none" stroke="black" stroke-width="2" d="M560,-476C528.66,-476 497.31,-476 465.96,-476"/>
<polygon fill="black" stroke="black" stroke-width="2" points="465.9,-472.5 455.9,-476 465.9,-479.5 465.9,-472.5"/>
</a>
</g>
<g id="a_edge16&#45;label"><a xlink:href="/SM_ROOT/PLACEMENT:failed_to_place:/SM_ROOT/AFTER_GRASP_USERINPUT">
<text text-anchor="middle" x="553.34" y="-479.4" font-family="Times,serif" font-size="12.00">failed_to_place</text>
</a>
</g>
</g>
<!-- /SM_ROOT/RETREAT_AFTER_PLACEMENT -->
<g id="node11" class="node">
<title>/SM_ROOT/RETREAT_AFTER_PLACEMENT</title>
<g id="a_node11"><a xlink:href="/SM_ROOT/RETREAT_AFTER_PLACEMENT" xlink:title="RETREAT_AFTER_PLACEMENT">
<ellipse fill="#ffffff" stroke="#000000" stroke-width="2" cx="723" cy="-386" rx="159.47" ry="18"/>
<text text-anchor="middle" x="723" y="-382.3" font-family="Times,serif" font-size="14.00">RETREAT_AFTER_PLACEMENT</text>
</a>
</g>
</g>
<!-- /SM_ROOT/PLACEMENT/__proxy__&#45;&gt;/SM_ROOT/RETREAT_AFTER_PLACEMENT -->
<g id="edge15" class="edge">
<title>/SM_ROOT/PLACEMENT/__proxy__&#45;&gt;/SM_ROOT/RETREAT_AFTER_PLACEMENT</title>
<g id="a_edge15"><a xlink:href="/SM_ROOT/PLACEMENT:end_placement:/SM_ROOT/RETREAT_AFTER_PLACEMENT">
<path fill="none" stroke="black" stroke-width="2" d="M658.28,-454C670.57,-441.28 686.29,-425 699.17,-411.67"/>
<polygon fill="black" stroke="black" stroke-width="2" points="702.03,-413.75 706.46,-404.12 697,-408.88 702.03,-413.75"/>
</a>
</g>
<g id="a_edge15&#45;label"><a xlink:href="/SM_ROOT/PLACEMENT:end_placement:/SM_ROOT/RETREAT_AFTER_PLACEMENT">
<text text-anchor="middle" x="636.66" y="-432.69" font-family="Times,serif" font-size="12.00">end_placement</text>
</a>
</g>
</g>
<!-- /SM_ROOT/RETREAT_AFTER_PLACEMENT&#45;&gt;/SM_ROOT/SETUP/__proxy__ -->
<g id="edge17" class="edge">
<title>/SM_ROOT/RETREAT_AFTER_PLACEMENT&#45;&gt;/SM_ROOT/SETUP/__proxy__</title>
<g id="a_edge17"><a xlink:href="/SM_ROOT/RETREAT_AFTER_PLACEMENT:succeeded:/SM_ROOT/SETUP">
<path fill="none" stroke="black" stroke-width="2" d="M649.52,-369.98C566.88,-353.09 434.85,-326.11 362.86,-311.4"/>
<polygon fill="black" stroke="black" stroke-width="2" points="371.41,-312.3 361,-310.32 367.9,-318.36 371.41,-312.3"/>
</a>
</g>
<g id="a_edge17&#45;label"><a xlink:href="/SM_ROOT/RETREAT_AFTER_PLACEMENT:succeeded:/SM_ROOT/SETUP">
<text text-anchor="middle" x="470.62" y="-343.26" font-family="Times,serif" font-size="12.00">succeeded</text>
</a>
</g>
</g>
</g>
</svg>
