<?xml version="1.0" encoding="UTF-8" standalone="no"?>
<!DOCTYPE svg PUBLIC "-//W3C//DTD SVG 1.1//EN"
 "http://www.w3.org/Graphics/SVG/1.1/DTD/svg11.dtd">
<!-- Generated by graphviz version 2.43.0 (0)
 -->
<!-- Title: %3 Pages: 1 -->
<svg width="1422pt" height="1413pt"
 viewBox="0.00 0.00 1422.00 1413.00" xmlns="http://www.w3.org/2000/svg" xmlns:xlink="http://www.w3.org/1999/xlink">
<g id="graph0" class="graph" transform="scale(1 1) rotate(0) translate(4 1409)">
<title>%3</title>
<polygon fill="white" stroke="transparent" points="-4,4 -4,-1409 1418,-1409 1418,4 -4,4"/>
<g id="clust1" class="cluster">
<title>cluster_/SM_ROOT</title>
<polygon fill="none" stroke="transparent" points="92,-8 92,-1397 1406,-1397 1406,-8 92,-8"/>
</g>
<g id="clust2" class="cluster">
<title>cluster_/SM_ROOT/__outcomes__</title>
<path fill="transparent" stroke="#ffffff" d="M936,-1351C936,-1351 982,-1351 982,-1351 988,-1351 994,-1357 994,-1363 994,-1363 994,-1377 994,-1377 994,-1383 988,-1389 982,-1389 982,-1389 936,-1389 936,-1389 930,-1389 924,-1383 924,-1377 924,-1377 924,-1363 924,-1363 924,-1357 930,-1351 936,-1351"/>
</g>
<g id="clust3" class="cluster">
<title>cluster_/SM_ROOT/SETUP</title>
<path fill="gray" stroke="#000000" stroke-width="2" d="M609,-16C609,-16 791,-16 791,-16 797,-16 803,-22 803,-28 803,-28 803,-402 803,-402 803,-408 797,-414 791,-414 791,-414 609,-414 609,-414 603,-414 597,-408 597,-402 597,-402 597,-28 597,-28 597,-22 603,-16 609,-16"/>
</g>
<g id="clust4" class="cluster">
<title>cluster_/SM_ROOT/SETUP/__outcomes__</title>
<path fill="transparent" stroke="#ffffff" d="M645,-24C645,-24 691,-24 691,-24 697,-24 703,-30 703,-36 703,-36 703,-50 703,-50 703,-56 697,-62 691,-62 691,-62 645,-62 645,-62 639,-62 633,-56 633,-50 633,-50 633,-36 633,-36 633,-30 639,-24 645,-24"/>
</g>
<g id="clust5" class="cluster">
<title>cluster_/SM_ROOT/EXECUTE_GRASP</title>
<path fill="gray" stroke="#000000" stroke-width="2" d="M270,-451C270,-451 638,-451 638,-451 644,-451 650,-457 650,-463 650,-463 650,-1114 650,-1114 650,-1120 644,-1126 638,-1126 638,-1126 270,-1126 270,-1126 264,-1126 258,-1120 258,-1114 258,-1114 258,-463 258,-463 258,-457 264,-451 270,-451"/>
</g>
<g id="clust6" class="cluster">
<title>cluster_/SM_ROOT/EXECUTE_GRASP/__outcomes__</title>
<path fill="transparent" stroke="#ffffff" d="M360,-459C360,-459 496,-459 496,-459 502,-459 508,-465 508,-471 508,-471 508,-485 508,-485 508,-491 502,-497 496,-497 496,-497 360,-497 360,-497 354,-497 348,-491 348,-485 348,-485 348,-471 348,-471 348,-465 354,-459 360,-459"/>
</g>
<g id="clust7" class="cluster">
<title>cluster_/SM_ROOT/PLACEMENT</title>
<path fill="gray" stroke="#000000" stroke-width="2" d="M966,-541C966,-541 1386,-541 1386,-541 1392,-541 1398,-547 1398,-553 1398,-553 1398,-938 1398,-938 1398,-944 1392,-950 1386,-950 1386,-950 966,-950 966,-950 960,-950 954,-944 954,-938 954,-938 954,-553 954,-553 954,-547 960,-541 966,-541"/>
</g>
<g id="clust8" class="cluster">
<title>cluster_/SM_ROOT/PLACEMENT/__outcomes__</title>
<path fill="transparent" stroke="#ffffff" d="M991,-549C991,-549 1127,-549 1127,-549 1133,-549 1139,-555 1139,-561 1139,-561 1139,-575 1139,-575 1139,-581 1133,-587 1127,-587 1127,-587 991,-587 991,-587 985,-587 979,-581 979,-575 979,-575 979,-561 979,-561 979,-555 985,-549 991,-549"/>
</g>
<!-- /SM_ROOT/__proxy__ -->
<g id="node1" class="node">
<title>/SM_ROOT/__proxy__</title>
<g id="a_node1"><a xlink:href="/SM_ROOT" xlink:title="SM_ROOT">
<text text-anchor="middle" x="194" y="-473.6" font-family="Times,serif" font-size="18.00">SM_ROOT</text>
</a>
</g>
</g>
<!-- /SM_ROOT/SETUP/__proxy__ -->
<g id="node3" class="node">
<title>/SM_ROOT/SETUP/__proxy__</title>
<g id="a_node3"><a xlink:href="/SM_ROOT/SETUP" xlink:title="SETUP">
<text text-anchor="middle" x="726" y="-387.6" font-family="Times,serif" font-size="18.00">SETUP</text>
</a>
</g>
</g>
<!-- /SM_ROOT/__proxy__&#45;&gt;/SM_ROOT/SETUP/__proxy__ -->
<g id="edge40" class="edge">
<title>/SM_ROOT/__proxy__&#45;&gt;/SM_ROOT/SETUP/__proxy__</title>
<g id="a_edge40"><a xlink:href="/SM_ROOT/__proxy__::/SM_ROOT/SETUP">
<path fill="none" stroke="black" stroke-width="2" d="M250.32,-465.96C277.11,-460.94 309.63,-455.21 339,-451 487.37,-429.72 532.47,-454.67 672.22,-416.72"/>
<polygon fill="black" stroke="black" stroke-width="2" points="673.3,-420.05 682,-414 671.43,-413.3 673.3,-420.05"/>
</a>
</g>
</g>
<!-- /SM_ROOT:end -->
<g id="node2" class="node">
<title>/SM_ROOT:end</title>
<g id="a_node2"><a xlink:href="/SM_ROOT:end">
<path fill="#fe464f" stroke="#780006" d="M978.67,-1381C978.67,-1381 939.33,-1381 939.33,-1381 935.67,-1381 932,-1377.33 932,-1373.67 932,-1373.67 932,-1366.33 932,-1366.33 932,-1362.67 935.67,-1359 939.33,-1359 939.33,-1359 978.67,-1359 978.67,-1359 982.33,-1359 986,-1362.67 986,-1366.33 986,-1366.33 986,-1373.67 986,-1373.67 986,-1377.33 982.33,-1381 978.67,-1381"/>
</a>
</g>
<text text-anchor="middle" x="921" y="-1384.4" font-family="Times,serif" font-size="12.00" fill="#780006">end</text>
</g>
<!-- /SM_ROOT/SETUP/GO_TO_TABLE -->
<g id="node5" class="node">
<title>/SM_ROOT/SETUP/GO_TO_TABLE</title>
<g id="a_node5"><a xlink:href="/SM_ROOT/SETUP/GO_TO_TABLE" xlink:title="GO_TO_TABLE">
<ellipse fill="#ffffff" stroke="#000000" stroke-width="2" cx="698" cy="-306" rx="79.09" ry="18"/>
<text text-anchor="middle" x="698" y="-302.3" font-family="Times,serif" font-size="14.00">GO_TO_TABLE</text>
</a>
</g>
</g>
<!-- /SM_ROOT/SETUP/__proxy__&#45;&gt;/SM_ROOT/SETUP/GO_TO_TABLE -->
<g id="edge5" class="edge">
<title>/SM_ROOT/SETUP/__proxy__&#45;&gt;/SM_ROOT/SETUP/GO_TO_TABLE</title>
<g id="a_edge5"><a xlink:href="/SM_ROOT/SETUP/__proxy__::/SM_ROOT/SETUP/GO_TO_TABLE">
<path fill="none" stroke="black" stroke-width="2" d="M721.62,-377.88C717.7,-366.1 711.82,-348.46 706.91,-333.73"/>
<polygon fill="black" stroke="black" stroke-width="2" points="710.18,-332.48 703.7,-324.1 703.54,-334.69 710.18,-332.48"/>
</a>
</g>
</g>
<!-- /SM_ROOT/SETUP:setup_succeeded -->
<g id="node4" class="node">
<title>/SM_ROOT/SETUP:setup_succeeded</title>
<g id="a_node4"><a xlink:href="/SM_ROOT/SETUP:setup_succeeded">
<path fill="#fe464f" stroke="#780006" d="M687.67,-54C687.67,-54 648.33,-54 648.33,-54 644.67,-54 641,-50.33 641,-46.67 641,-46.67 641,-39.33 641,-39.33 641,-35.67 644.67,-32 648.33,-32 648.33,-32 687.67,-32 687.67,-32 691.33,-32 695,-35.67 695,-39.33 695,-39.33 695,-46.67 695,-46.67 695,-50.33 691.33,-54 687.67,-54"/>
</a>
</g>
<text text-anchor="middle" x="590.5" y="-57.4" font-family="Times,serif" font-size="12.00" fill="#780006">setup_succeeded</text>
</g>
<!-- /SM_ROOT/FIND_GRASP_USERINPUT -->
<g id="node8" class="node">
<title>/SM_ROOT/FIND_GRASP_USERINPUT</title>
<g id="a_node8"><a xlink:href="/SM_ROOT/FIND_GRASP_USERINPUT" xlink:title="FIND_GRASP_USERINPUT">
<ellipse fill="#c0f700" stroke="#5c7600" stroke-width="5" cx="327" cy="-1370" rx="135.68" ry="18"/>
<text text-anchor="middle" x="327" y="-1366.3" font-family="Times,serif" font-size="14.00">FIND_GRASP_USERINPUT</text>
</a>
</g>
</g>
<!-- /SM_ROOT/SETUP:setup_succeeded&#45;&gt;/SM_ROOT/FIND_GRASP_USERINPUT -->
<g id="edge23" class="edge">
<title>/SM_ROOT/SETUP:setup_succeeded&#45;&gt;/SM_ROOT/FIND_GRASP_USERINPUT</title>
<g id="a_edge23"><a xlink:href="/SM_ROOT/SETUP:setup_succeeded:/SM_ROOT/FIND_GRASP_USERINPUT">
<path fill="none" stroke="black" stroke-width="2" d="M640.65,-46.21C527.39,-56.09 101,-100.87 101,-215 101,-1191 101,-1191 101,-1191 101,-1274.66 197.77,-1325.05 264.66,-1349.89"/>
<polygon fill="black" stroke="black" stroke-width="2" points="263.7,-1353.26 274.3,-1353.37 266.08,-1346.68 263.7,-1353.26"/>
</a>
</g>
<g id="a_edge23&#45;label"><a xlink:href="/SM_ROOT/SETUP:setup_succeeded:/SM_ROOT/FIND_GRASP_USERINPUT">
<text text-anchor="middle" x="50.5" y="-782.66" font-family="Times,serif" font-size="12.00">setup_succeeded</text>
</a>
</g>
</g>
<!-- /SM_ROOT/SETUP/GO_TO_TABLE&#45;&gt;/SM_ROOT/SETUP/GO_TO_TABLE -->
<g id="edge1" class="edge">
<title>/SM_ROOT/SETUP/GO_TO_TABLE&#45;&gt;/SM_ROOT/SETUP/GO_TO_TABLE</title>
<g id="a_edge1"><a xlink:href="/SM_ROOT/SETUP/GO_TO_TABLE:aborted:/SM_ROOT/SETUP/GO_TO_TABLE">
<path fill="none" stroke="black" stroke-width="2" d="M745.67,-320.43C779.6,-325.05 813.29,-320.24 813.29,-306 813.29,-293.21 786.09,-288.03 755.97,-290.46"/>
<polygon fill="black" stroke="black" stroke-width="2" points="755.24,-287.01 745.67,-291.57 755.99,-293.97 755.24,-287.01"/>
</a>
</g>
<g id="a_edge1&#45;label"><a xlink:href="/SM_ROOT/SETUP/GO_TO_TABLE:aborted:/SM_ROOT/SETUP/GO_TO_TABLE">
<text text-anchor="middle" x="769.77" y="-323.84" font-family="Times,serif" font-size="12.00">aborted</text>
</a>
</g>
</g>
<!-- /SM_ROOT/SETUP/GO_TO_NEUTRAL -->
<g id="node6" class="node">
<title>/SM_ROOT/SETUP/GO_TO_NEUTRAL</title>
<g id="a_node6"><a xlink:href="/SM_ROOT/SETUP/GO_TO_NEUTRAL" xlink:title="GO_TO_NEUTRAL">
<ellipse fill="#ffffff" stroke="#000000" stroke-width="2" cx="700" cy="-216" rx="94.78" ry="18"/>
<text text-anchor="middle" x="700" y="-212.3" font-family="Times,serif" font-size="14.00">GO_TO_NEUTRAL</text>
</a>
</g>
</g>
<!-- /SM_ROOT/SETUP/GO_TO_TABLE&#45;&gt;/SM_ROOT/SETUP/GO_TO_NEUTRAL -->
<g id="edge2" class="edge">
<title>/SM_ROOT/SETUP/GO_TO_TABLE&#45;&gt;/SM_ROOT/SETUP/GO_TO_NEUTRAL</title>
<g id="a_edge2"><a xlink:href="/SM_ROOT/SETUP/GO_TO_TABLE:succeeded:/SM_ROOT/SETUP/GO_TO_NEUTRAL">
<path fill="none" stroke="black" stroke-width="2" d="M698.4,-287.61C698.68,-275.24 699.06,-258.37 699.38,-244.22"/>
<polygon fill="black" stroke="black" stroke-width="2" points="702.88,-244.13 699.61,-234.05 695.89,-243.97 702.88,-244.13"/>
</a>
</g>
<g id="a_edge2&#45;label"><a xlink:href="/SM_ROOT/SETUP/GO_TO_TABLE:succeeded:/SM_ROOT/SETUP/GO_TO_NEUTRAL">
<text text-anchor="middle" x="667.51" y="-263.95" font-family="Times,serif" font-size="12.00">succeeded</text>
</a>
</g>
</g>
<!-- /SM_ROOT/SETUP/OPEN_GRIPPER -->
<g id="node7" class="node">
<title>/SM_ROOT/SETUP/OPEN_GRIPPER</title>
<g id="a_node7"><a xlink:href="/SM_ROOT/SETUP/OPEN_GRIPPER" xlink:title="OPEN_GRIPPER">
<ellipse fill="#ffffff" stroke="#000000" stroke-width="2" cx="696" cy="-126" rx="87.18" ry="18"/>
<text text-anchor="middle" x="696" y="-122.3" font-family="Times,serif" font-size="14.00">OPEN_GRIPPER</text>
</a>
</g>
</g>
<!-- /SM_ROOT/SETUP/GO_TO_NEUTRAL&#45;&gt;/SM_ROOT/SETUP/OPEN_GRIPPER -->
<g id="edge3" class="edge">
<title>/SM_ROOT/SETUP/GO_TO_NEUTRAL&#45;&gt;/SM_ROOT/SETUP/OPEN_GRIPPER</title>
<g id="a_edge3"><a xlink:href="/SM_ROOT/SETUP/GO_TO_NEUTRAL:succeeded:/SM_ROOT/SETUP/OPEN_GRIPPER">
<path fill="none" stroke="black" stroke-width="2" d="M699.21,-197.61C698.65,-185.24 697.88,-168.37 697.24,-154.22"/>
<polygon fill="black" stroke="black" stroke-width="2" points="700.73,-153.88 696.78,-144.05 693.73,-154.2 700.73,-153.88"/>
</a>
</g>
<g id="a_edge3&#45;label"><a xlink:href="/SM_ROOT/SETUP/GO_TO_NEUTRAL:succeeded:/SM_ROOT/SETUP/OPEN_GRIPPER">
<text text-anchor="middle" x="666.48" y="-173.95" font-family="Times,serif" font-size="12.00">succeeded</text>
</a>
</g>
</g>
<!-- /SM_ROOT/SETUP/OPEN_GRIPPER&#45;&gt;/SM_ROOT/SETUP:setup_succeeded -->
<g id="edge4" class="edge">
<title>/SM_ROOT/SETUP/OPEN_GRIPPER&#45;&gt;/SM_ROOT/SETUP:setup_succeeded</title>
<g id="a_edge4"><a xlink:href="/SM_ROOT/SETUP/OPEN_GRIPPER:succeeded:/SM_ROOT/SETUP/setup_succeeded">
<path fill="none" stroke="#000000" stroke-width="2" stroke-opacity="0.333333" d="M690.06,-107.82C685.6,-94.92 679.49,-77.24 674.83,-63.75"/>
<polygon fill="#000000" fill-opacity="0.333333" stroke="#000000" stroke-width="2" stroke-opacity="0.333333" points="678.04,-62.32 671.46,-54.01 671.42,-64.61 678.04,-62.32"/>
</a>
</g>
<g id="a_edge4&#45;label"><a xlink:href="/SM_ROOT/SETUP/OPEN_GRIPPER:succeeded:/SM_ROOT/SETUP/setup_succeeded">
<text text-anchor="middle" x="649.27" y="-84.34" font-family="Times,serif" font-size="12.00">succeeded</text>
</a>
</g>
</g>
<!-- /SM_ROOT/FIND_GRASP -->
<g id="node9" class="node">
<title>/SM_ROOT/FIND_GRASP</title>
<g id="a_node9"><a xlink:href="/SM_ROOT/FIND_GRASP" xlink:title="FIND_GRASP">
<ellipse fill="#ffffff" stroke="#000000" stroke-width="2" cx="327" cy="-1280" rx="73.39" ry="18"/>
<text text-anchor="middle" x="327" y="-1276.3" font-family="Times,serif" font-size="14.00">FIND_GRASP</text>
</a>
</g>
</g>
<!-- /SM_ROOT/FIND_GRASP_USERINPUT&#45;&gt;/SM_ROOT/FIND_GRASP -->
<g id="edge24" class="edge">
<title>/SM_ROOT/FIND_GRASP_USERINPUT&#45;&gt;/SM_ROOT/FIND_GRASP</title>
<g id="a_edge24"><a xlink:href="/SM_ROOT/FIND_GRASP_USERINPUT:succeeded:/SM_ROOT/FIND_GRASP">
<path fill="none" stroke="black" stroke-width="2" d="M305.17,-1352.03C299.49,-1339.21 298.49,-1321.38 302.17,-1306.8"/>
<polygon fill="black" stroke="black" stroke-width="2" points="305.49,-1307.91 305.46,-1297.32 298.87,-1305.62 305.49,-1307.91"/>
</a>
</g>
<g id="a_edge24&#45;label"><a xlink:href="/SM_ROOT/FIND_GRASP_USERINPUT:succeeded:/SM_ROOT/FIND_GRASP">
<text text-anchor="middle" x="268.5" y="-1328.28" font-family="Times,serif" font-size="12.00">succeeded</text>
</a>
</g>
</g>
<!-- /SM_ROOT/FIND_GRASP&#45;&gt;/SM_ROOT/FIND_GRASP_USERINPUT -->
<g id="edge25" class="edge">
<title>/SM_ROOT/FIND_GRASP&#45;&gt;/SM_ROOT/FIND_GRASP_USERINPUT</title>
<g id="a_edge25"><a xlink:href="/SM_ROOT/FIND_GRASP:aborted:/SM_ROOT/FIND_GRASP_USERINPUT">
<path fill="none" stroke="black" stroke-width="2" d="M327,-1298.05C327,-1310.34 327,-1327.2 327,-1341.39"/>
<polygon fill="black" stroke="black" stroke-width="2" points="323.5,-1341.61 327,-1351.61 330.5,-1341.61 323.5,-1341.61"/>
</a>
</g>
<g id="a_edge25&#45;label"><a xlink:href="/SM_ROOT/FIND_GRASP:aborted:/SM_ROOT/FIND_GRASP_USERINPUT">
<text text-anchor="middle" x="351" y="-1328.44" font-family="Times,serif" font-size="12.00">aborted</text>
</a>
</g>
</g>
<!-- /SM_ROOT/FIND_GRASP&#45;&gt;/SM_ROOT/FIND_GRASP_USERINPUT -->
<g id="edge26" class="edge">
<title>/SM_ROOT/FIND_GRASP&#45;&gt;/SM_ROOT/FIND_GRASP_USERINPUT</title>
<g id="a_edge26"><a xlink:href="/SM_ROOT/FIND_GRASP:preempted:/SM_ROOT/FIND_GRASP_USERINPUT">
<path fill="none" stroke="black" stroke-width="2" d="M348.54,-1297.32C354.37,-1309.97 355.53,-1327.76 352.01,-1342.46"/>
<polygon fill="black" stroke="black" stroke-width="2" points="348.67,-1341.44 348.83,-1352.03 355.31,-1343.65 348.67,-1341.44"/>
</a>
</g>
<g id="a_edge26&#45;label"><a xlink:href="/SM_ROOT/FIND_GRASP:preempted:/SM_ROOT/FIND_GRASP_USERINPUT">
<text text-anchor="middle" x="321.5" y="-1314.71" font-family="Times,serif" font-size="12.00">preempted</text>
</a>
</g>
</g>
<!-- /SM_ROOT/EXECUTE_GRASP_USERINPUT -->
<g id="node10" class="node">
<title>/SM_ROOT/EXECUTE_GRASP_USERINPUT</title>
<g id="a_node10"><a xlink:href="/SM_ROOT/EXECUTE_GRASP_USERINPUT" xlink:title="EXECUTE_GRASP_USERINPUT">
<ellipse fill="#ffffff" stroke="#000000" stroke-width="2" cx="327" cy="-1190" rx="158.67" ry="18"/>
<text text-anchor="middle" x="327" y="-1186.3" font-family="Times,serif" font-size="14.00">EXECUTE_GRASP_USERINPUT</text>
</a>
</g>
</g>
<!-- /SM_ROOT/FIND_GRASP&#45;&gt;/SM_ROOT/EXECUTE_GRASP_USERINPUT -->
<g id="edge27" class="edge">
<title>/SM_ROOT/FIND_GRASP&#45;&gt;/SM_ROOT/EXECUTE_GRASP_USERINPUT</title>
<g id="a_edge27"><a xlink:href="/SM_ROOT/FIND_GRASP:succeeded:/SM_ROOT/EXECUTE_GRASP_USERINPUT">
<path fill="none" stroke="black" stroke-width="2" d="M316.08,-1262.03C313.35,-1249.69 312.79,-1232.73 314.39,-1218.47"/>
<polygon fill="black" stroke="black" stroke-width="2" points="317.9,-1218.64 316.03,-1208.22 310.99,-1217.54 317.9,-1218.64"/>
</a>
</g>
<g id="a_edge27&#45;label"><a xlink:href="/SM_ROOT/FIND_GRASP:succeeded:/SM_ROOT/EXECUTE_GRASP_USERINPUT">
<text text-anchor="middle" x="282" y="-1238.31" font-family="Times,serif" font-size="12.00">succeeded</text>
</a>
</g>
</g>
<!-- /SM_ROOT/EXECUTE_GRASP_USERINPUT&#45;&gt;/SM_ROOT/FIND_GRASP -->
<g id="edge28" class="edge">
<title>/SM_ROOT/EXECUTE_GRASP_USERINPUT&#45;&gt;/SM_ROOT/FIND_GRASP</title>
<g id="a_edge28"><a xlink:href="/SM_ROOT/EXECUTE_GRASP_USERINPUT:retry:/SM_ROOT/FIND_GRASP">
<path fill="none" stroke="black" stroke-width="2" d="M337.97,-1208.22C340.67,-1220.62 341.21,-1237.6 339.58,-1251.82"/>
<polygon fill="black" stroke="black" stroke-width="2" points="336.07,-1251.6 337.92,-1262.03 342.98,-1252.73 336.07,-1251.6"/>
</a>
</g>
<g id="a_edge28&#45;label"><a xlink:href="/SM_ROOT/EXECUTE_GRASP_USERINPUT:retry:/SM_ROOT/FIND_GRASP">
<text text-anchor="middle" x="356" y="-1238.8" font-family="Times,serif" font-size="12.00">retry</text>
</a>
</g>
</g>
<!-- /SM_ROOT/EXECUTE_GRASP/__proxy__ -->
<g id="node11" class="node">
<title>/SM_ROOT/EXECUTE_GRASP/__proxy__</title>
<g id="a_node11"><a xlink:href="/SM_ROOT/EXECUTE_GRASP" xlink:title="EXECUTE_GRASP">
<text text-anchor="middle" x="370" y="-1099.6" font-family="Times,serif" font-size="18.00">EXECUTE_GRASP</text>
</a>
</g>
</g>
<!-- /SM_ROOT/EXECUTE_GRASP_USERINPUT&#45;&gt;/SM_ROOT/EXECUTE_GRASP/__proxy__ -->
<g id="edge29" class="edge">
<title>/SM_ROOT/EXECUTE_GRASP_USERINPUT&#45;&gt;/SM_ROOT/EXECUTE_GRASP/__proxy__</title>
<g id="a_edge29"><a xlink:href="/SM_ROOT/EXECUTE_GRASP_USERINPUT:succeeded:/SM_ROOT/EXECUTE_GRASP">
<path fill="none" stroke="black" stroke-width="2" d="M335.7,-1172C342.32,-1159.07 351.49,-1141.17 358.68,-1127.12"/>
<polygon fill="black" stroke="black" stroke-width="2" points="357.59,-1136.46 359.28,-1126 351.44,-1133.12 357.59,-1136.46"/>
</a>
</g>
<g id="a_edge29&#45;label"><a xlink:href="/SM_ROOT/EXECUTE_GRASP_USERINPUT:succeeded:/SM_ROOT/EXECUTE_GRASP">
<text text-anchor="middle" x="315.85" y="-1152.64" font-family="Times,serif" font-size="12.00">succeeded</text>
</a>
</g>
</g>
<!-- /SM_ROOT/EXECUTE_GRASP/FIND_TABLE_PLANES -->
<g id="node14" class="node">
<title>/SM_ROOT/EXECUTE_GRASP/FIND_TABLE_PLANES</title>
<g id="a_node14"><a xlink:href="/SM_ROOT/EXECUTE_GRASP/FIND_TABLE_PLANES" xlink:title="FIND_TABLE_PLANES">
<ellipse fill="#ffffff" stroke="#000000" stroke-width="2" cx="393" cy="-1018" rx="115.88" ry="18"/>
<text text-anchor="middle" x="393" y="-1014.3" font-family="Times,serif" font-size="14.00">FIND_TABLE_PLANES</text>
</a>
</g>
</g>
<!-- /SM_ROOT/EXECUTE_GRASP/__proxy__&#45;&gt;/SM_ROOT/EXECUTE_GRASP/FIND_TABLE_PLANES -->
<g id="edge15" class="edge">
<title>/SM_ROOT/EXECUTE_GRASP/__proxy__&#45;&gt;/SM_ROOT/EXECUTE_GRASP/FIND_TABLE_PLANES</title>
<g id="a_edge15"><a xlink:href="/SM_ROOT/EXECUTE_GRASP/__proxy__::/SM_ROOT/EXECUTE_GRASP/FIND_TABLE_PLANES">
<path fill="none" stroke="black" stroke-width="2" d="M373.59,-1089.88C376.79,-1078.22 381.55,-1060.8 385.56,-1046.16"/>
<polygon fill="black" stroke="black" stroke-width="2" points="389.05,-1046.67 388.32,-1036.1 382.3,-1044.82 389.05,-1046.67"/>
</a>
</g>
</g>
<!-- /SM_ROOT/EXECUTE_GRASP:end_execute_grasp -->
<g id="node12" class="node">
<title>/SM_ROOT/EXECUTE_GRASP:end_execute_grasp</title>
<g id="a_node12"><a xlink:href="/SM_ROOT/EXECUTE_GRASP:end_execute_grasp">
<path fill="#fe464f" stroke="#780006" d="M492.67,-489C492.67,-489 453.33,-489 453.33,-489 449.67,-489 446,-485.33 446,-481.67 446,-481.67 446,-474.33 446,-474.33 446,-470.67 449.67,-467 453.33,-467 453.33,-467 492.67,-467 492.67,-467 496.33,-467 500,-470.67 500,-474.33 500,-474.33 500,-481.67 500,-481.67 500,-485.33 496.33,-489 492.67,-489"/>
</a>
</g>
<text text-anchor="middle" x="388.5" y="-492.4" font-family="Times,serif" font-size="12.00" fill="#780006">end_execute_grasp</text>
</g>
<!-- /SM_ROOT/AFTER_GRASP_USERINPUT -->
<g id="node20" class="node">
<title>/SM_ROOT/AFTER_GRASP_USERINPUT</title>
<g id="a_node20"><a xlink:href="/SM_ROOT/AFTER_GRASP_USERINPUT" xlink:title="AFTER_GRASP_USERINPUT">
<ellipse fill="#ffffff" stroke="#000000" stroke-width="2" cx="802" cy="-568" rx="143.77" ry="18"/>
<text text-anchor="middle" x="802" y="-564.3" font-family="Times,serif" font-size="14.00">AFTER_GRASP_USERINPUT</text>
</a>
</g>
</g>
<!-- /SM_ROOT/EXECUTE_GRASP:end_execute_grasp&#45;&gt;/SM_ROOT/AFTER_GRASP_USERINPUT -->
<g id="edge30" class="edge">
<title>/SM_ROOT/EXECUTE_GRASP:end_execute_grasp&#45;&gt;/SM_ROOT/AFTER_GRASP_USERINPUT</title>
<g id="a_edge30"><a xlink:href="/SM_ROOT/EXECUTE_GRASP:end_execute_grasp:/SM_ROOT/AFTER_GRASP_USERINPUT">
<path fill="none" stroke="black" stroke-width="2" d="M488.32,-489.09C493.18,-491.97 498.68,-494.88 504,-497 542.56,-512.33 644.96,-535 718.96,-550.36"/>
<polygon fill="black" stroke="black" stroke-width="2" points="718.71,-553.88 729.21,-552.47 720.12,-547.02 718.71,-553.88"/>
</a>
</g>
<g id="a_edge30&#45;label"><a xlink:href="/SM_ROOT/EXECUTE_GRASP:end_execute_grasp:/SM_ROOT/AFTER_GRASP_USERINPUT">
<text text-anchor="middle" x="540.67" y="-527.07" font-family="Times,serif" font-size="12.00">end_execute_grasp</text>
</a>
</g>
</g>
<!-- /SM_ROOT/EXECUTE_GRASP:failed_to_grasp -->
<g id="node13" class="node">
<title>/SM_ROOT/EXECUTE_GRASP:failed_to_grasp</title>
<g id="a_node13"><a xlink:href="/SM_ROOT/EXECUTE_GRASP:failed_to_grasp">
<path fill="#fe464f" stroke="#780006" d="M402.67,-489C402.67,-489 363.33,-489 363.33,-489 359.67,-489 356,-485.33 356,-481.67 356,-481.67 356,-474.33 356,-474.33 356,-470.67 359.67,-467 363.33,-467 363.33,-467 402.67,-467 402.67,-467 406.33,-467 410,-470.67 410,-474.33 410,-474.33 410,-481.67 410,-481.67 410,-485.33 406.33,-489 402.67,-489"/>
</a>
</g>
<text text-anchor="middle" x="309.5" y="-470.4" font-family="Times,serif" font-size="12.00" fill="#780006">failed_to_grasp</text>
</g>
<!-- /SM_ROOT/EXECUTE_GRASP:failed_to_grasp&#45;&gt;/SM_ROOT/SETUP/__proxy__ -->
<g id="edge31" class="edge">
<title>/SM_ROOT/EXECUTE_GRASP:failed_to_grasp&#45;&gt;/SM_ROOT/SETUP/__proxy__</title>
<g id="a_edge31"><a xlink:href="/SM_ROOT/EXECUTE_GRASP:failed_to_grasp:/SM_ROOT/SETUP">
<path fill="none" stroke="black" stroke-width="2" d="M397.32,-466.84C405.84,-461.29 417.09,-454.79 428,-451 532.5,-414.7 570.54,-445.2 672.28,-416.83"/>
<polygon fill="black" stroke="black" stroke-width="2" points="673.38,-420.16 682,-414 671.42,-413.44 673.38,-420.16"/>
</a>
</g>
<g id="a_edge31&#45;label"><a xlink:href="/SM_ROOT/EXECUTE_GRASP:failed_to_grasp:/SM_ROOT/SETUP">
<text text-anchor="middle" x="493.06" y="-434.55" font-family="Times,serif" font-size="12.00">failed_to_grasp</text>
</a>
</g>
</g>
<!-- /SM_ROOT/EXECUTE_GRASP/ADD_COLLISION_OBJECTS -->
<g id="node15" class="node">
<title>/SM_ROOT/EXECUTE_GRASP/ADD_COLLISION_OBJECTS</title>
<g id="a_node15"><a xlink:href="/SM_ROOT/EXECUTE_GRASP/ADD_COLLISION_OBJECTS" xlink:title="ADD_COLLISION_OBJECTS">
<ellipse fill="#ffffff" stroke="#000000" stroke-width="2" cx="404" cy="-928" rx="137.58" ry="18"/>
<text text-anchor="middle" x="404" y="-924.3" font-family="Times,serif" font-size="14.00">ADD_COLLISION_OBJECTS</text>
</a>
</g>
</g>
<!-- /SM_ROOT/EXECUTE_GRASP/FIND_TABLE_PLANES&#45;&gt;/SM_ROOT/EXECUTE_GRASP/ADD_COLLISION_OBJECTS -->
<g id="edge6" class="edge">
<title>/SM_ROOT/EXECUTE_GRASP/FIND_TABLE_PLANES&#45;&gt;/SM_ROOT/EXECUTE_GRASP/ADD_COLLISION_OBJECTS</title>
<g id="a_edge6"><a xlink:href="/SM_ROOT/EXECUTE_GRASP/FIND_TABLE_PLANES:succeeded:/SM_ROOT/EXECUTE_GRASP/ADD_COLLISION_OBJECTS">
<path fill="none" stroke="black" stroke-width="2" d="M395.17,-999.61C396.72,-987.24 398.83,-970.37 400.6,-956.22"/>
<polygon fill="black" stroke="black" stroke-width="2" points="404.1,-956.41 401.87,-946.05 397.16,-955.54 404.1,-956.41"/>
</a>
</g>
<g id="a_edge6&#45;label"><a xlink:href="/SM_ROOT/EXECUTE_GRASP/FIND_TABLE_PLANES:succeeded:/SM_ROOT/EXECUTE_GRASP/ADD_COLLISION_OBJECTS">
<text text-anchor="middle" x="367.06" y="-975.95" font-family="Times,serif" font-size="12.00">succeeded</text>
</a>
</g>
</g>
<!-- /SM_ROOT/EXECUTE_GRASP/EXECUTE_GRASP -->
<g id="node16" class="node">
<title>/SM_ROOT/EXECUTE_GRASP/EXECUTE_GRASP</title>
<g id="a_node16"><a xlink:href="/SM_ROOT/EXECUTE_GRASP/EXECUTE_GRASP" xlink:title="EXECUTE_GRASP">
<ellipse fill="#ffffff" stroke="#000000" stroke-width="2" cx="362" cy="-838" rx="95.58" ry="18"/>
<text text-anchor="middle" x="362" y="-834.3" font-family="Times,serif" font-size="14.00">EXECUTE_GRASP</text>
</a>
</g>
</g>
<!-- /SM_ROOT/EXECUTE_GRASP/ADD_COLLISION_OBJECTS&#45;&gt;/SM_ROOT/EXECUTE_GRASP/EXECUTE_GRASP -->
<g id="edge7" class="edge">
<title>/SM_ROOT/EXECUTE_GRASP/ADD_COLLISION_OBJECTS&#45;&gt;/SM_ROOT/EXECUTE_GRASP/EXECUTE_GRASP</title>
<g id="a_edge7"><a xlink:href="/SM_ROOT/EXECUTE_GRASP/ADD_COLLISION_OBJECTS:succeeded:/SM_ROOT/EXECUTE_GRASP/EXECUTE_GRASP">
<path fill="none" stroke="black" stroke-width="2" d="M395.7,-909.61C389.68,-897 381.43,-879.71 374.6,-865.39"/>
<polygon fill="black" stroke="black" stroke-width="2" points="377.6,-863.57 370.14,-856.05 371.29,-866.58 377.6,-863.57"/>
</a>
</g>
<g id="a_edge7&#45;label"><a xlink:href="/SM_ROOT/EXECUTE_GRASP/ADD_COLLISION_OBJECTS:succeeded:/SM_ROOT/EXECUTE_GRASP/EXECUTE_GRASP">
<text text-anchor="middle" x="351.53" y="-886.47" font-family="Times,serif" font-size="12.00">succeeded</text>
</a>
</g>
</g>
<!-- /SM_ROOT/EXECUTE_GRASP/EXECUTE_GRASP&#45;&gt;/SM_ROOT/EXECUTE_GRASP:failed_to_grasp -->
<g id="edge8" class="edge">
<title>/SM_ROOT/EXECUTE_GRASP/EXECUTE_GRASP&#45;&gt;/SM_ROOT/EXECUTE_GRASP:failed_to_grasp</title>
<g id="a_edge8"><a xlink:href="/SM_ROOT/EXECUTE_GRASP/EXECUTE_GRASP:aborted:/SM_ROOT/EXECUTE_GRASP/failed_to_grasp">
<path fill="none" stroke="#000000" stroke-width="2" stroke-opacity="0.333333" d="M330.62,-820.77C314.26,-807.29 296.94,-787 287,-766 262.76,-714.82 252.96,-694.6 268,-640 283.99,-581.95 327.32,-523.94 357.01,-496.07"/>
<polygon fill="#000000" fill-opacity="0.333333" stroke="#000000" stroke-width="2" stroke-opacity="0.333333" points="359.45,-498.59 364.62,-489.34 354.81,-493.35 359.45,-498.59"/>
</a>
</g>
<g id="a_edge8&#45;label"><a xlink:href="/SM_ROOT/EXECUTE_GRASP/EXECUTE_GRASP:aborted:/SM_ROOT/EXECUTE_GRASP/failed_to_grasp">
<text text-anchor="middle" x="247.08" y="-633.2" font-family="Times,serif" font-size="12.00">aborted</text>
</a>
</g>
</g>
<!-- /SM_ROOT/EXECUTE_GRASP/EXECUTE_GRASP&#45;&gt;/SM_ROOT/EXECUTE_GRASP:failed_to_grasp -->
<g id="edge9" class="edge">
<title>/SM_ROOT/EXECUTE_GRASP/EXECUTE_GRASP&#45;&gt;/SM_ROOT/EXECUTE_GRASP:failed_to_grasp</title>
<g id="a_edge9"><a xlink:href="/SM_ROOT/EXECUTE_GRASP/EXECUTE_GRASP:preempted:/SM_ROOT/EXECUTE_GRASP/failed_to_grasp">
<path fill="none" stroke="#000000" stroke-width="2" stroke-opacity="0.333333" d="M359.21,-819.93C349.56,-806.47 332.74,-786.57 323,-766 298.76,-714.82 288.96,-694.6 304,-640 319.58,-583.43 361.12,-526.91 378.24,-498.27"/>
<polygon fill="#000000" fill-opacity="0.333333" stroke="#000000" stroke-width="2" stroke-opacity="0.333333" points="381.4,-499.79 383.19,-489.34 375.28,-496.39 381.4,-499.79"/>
</a>
</g>
<g id="a_edge9&#45;label"><a xlink:href="/SM_ROOT/EXECUTE_GRASP/EXECUTE_GRASP:preempted:/SM_ROOT/EXECUTE_GRASP/failed_to_grasp">
<text text-anchor="middle" x="337.93" y="-625.43" font-family="Times,serif" font-size="12.00">preempted</text>
</a>
</g>
</g>
<!-- /SM_ROOT/EXECUTE_GRASP/RETREAT_AFTER_GRASP -->
<g id="node17" class="node">
<title>/SM_ROOT/EXECUTE_GRASP/RETREAT_AFTER_GRASP</title>
<g id="a_node17"><a xlink:href="/SM_ROOT/EXECUTE_GRASP/RETREAT_AFTER_GRASP" xlink:title="RETREAT_AFTER_GRASP">
<ellipse fill="#ffffff" stroke="#000000" stroke-width="2" cx="453" cy="-748" rx="129.98" ry="18"/>
<text text-anchor="middle" x="453" y="-744.3" font-family="Times,serif" font-size="14.00">RETREAT_AFTER_GRASP</text>
</a>
</g>
</g>
<!-- /SM_ROOT/EXECUTE_GRASP/EXECUTE_GRASP&#45;&gt;/SM_ROOT/EXECUTE_GRASP/RETREAT_AFTER_GRASP -->
<g id="edge10" class="edge">
<title>/SM_ROOT/EXECUTE_GRASP/EXECUTE_GRASP&#45;&gt;/SM_ROOT/EXECUTE_GRASP/RETREAT_AFTER_GRASP</title>
<g id="a_edge10"><a xlink:href="/SM_ROOT/EXECUTE_GRASP/EXECUTE_GRASP:succeeded:/SM_ROOT/EXECUTE_GRASP/RETREAT_AFTER_GRASP">
<path fill="none" stroke="black" stroke-width="2" d="M379.55,-820.03C393.39,-806.64 412.88,-787.8 428.31,-772.88"/>
<polygon fill="black" stroke="black" stroke-width="2" points="430.75,-775.38 435.51,-765.92 425.89,-770.35 430.75,-775.38"/>
</a>
</g>
<g id="a_edge10&#45;label"><a xlink:href="/SM_ROOT/EXECUTE_GRASP/EXECUTE_GRASP:succeeded:/SM_ROOT/EXECUTE_GRASP/RETREAT_AFTER_GRASP">
<text text-anchor="middle" x="376.24" y="-796.16" font-family="Times,serif" font-size="12.00">succeeded</text>
</a>
</g>
</g>
<!-- /SM_ROOT/EXECUTE_GRASP/GO_TO_NEUTRAL_AFTER_GRASP -->
<g id="node18" class="node">
<title>/SM_ROOT/EXECUTE_GRASP/GO_TO_NEUTRAL_AFTER_GRASP</title>
<g id="a_node18"><a xlink:href="/SM_ROOT/EXECUTE_GRASP/GO_TO_NEUTRAL_AFTER_GRASP" xlink:title="GO_TO_NEUTRAL_AFTER_GRASP">
<ellipse fill="#ffffff" stroke="#000000" stroke-width="2" cx="473" cy="-658" rx="168.97" ry="18"/>
<text text-anchor="middle" x="473" y="-654.3" font-family="Times,serif" font-size="14.00">GO_TO_NEUTRAL_AFTER_GRASP</text>
</a>
</g>
</g>
<!-- /SM_ROOT/EXECUTE_GRASP/RETREAT_AFTER_GRASP&#45;&gt;/SM_ROOT/EXECUTE_GRASP/GO_TO_NEUTRAL_AFTER_GRASP -->
<g id="edge11" class="edge">
<title>/SM_ROOT/EXECUTE_GRASP/RETREAT_AFTER_GRASP&#45;&gt;/SM_ROOT/EXECUTE_GRASP/GO_TO_NEUTRAL_AFTER_GRASP</title>
<g id="a_edge11"><a xlink:href="/SM_ROOT/EXECUTE_GRASP/RETREAT_AFTER_GRASP:succeeded:/SM_ROOT/EXECUTE_GRASP/GO_TO_NEUTRAL_AFTER_GRASP">
<path fill="none" stroke="black" stroke-width="2" d="M456.95,-729.61C459.79,-717.12 463.67,-700.04 466.91,-685.8"/>
<polygon fill="black" stroke="black" stroke-width="2" points="470.32,-686.58 469.12,-676.05 463.5,-685.03 470.32,-686.58"/>
</a>
</g>
<g id="a_edge11&#45;label"><a xlink:href="/SM_ROOT/EXECUTE_GRASP/RETREAT_AFTER_GRASP:succeeded:/SM_ROOT/EXECUTE_GRASP/GO_TO_NEUTRAL_AFTER_GRASP">
<text text-anchor="middle" x="431.5" y="-706.39" font-family="Times,serif" font-size="12.00">succeeded</text>
</a>
</g>
</g>
<!-- /SM_ROOT/EXECUTE_GRASP/GO_BACK_TO_TABLE -->
<g id="node19" class="node">
<title>/SM_ROOT/EXECUTE_GRASP/GO_BACK_TO_TABLE</title>
<g id="a_node19"><a xlink:href="/SM_ROOT/EXECUTE_GRASP/GO_BACK_TO_TABLE" xlink:title="GO_BACK_TO_TABLE">
<ellipse fill="#ffffff" stroke="#000000" stroke-width="2" cx="473" cy="-568" rx="110.48" ry="18"/>
<text text-anchor="middle" x="473" y="-564.3" font-family="Times,serif" font-size="14.00">GO_BACK_TO_TABLE</text>
</a>
</g>
</g>
<!-- /SM_ROOT/EXECUTE_GRASP/GO_TO_NEUTRAL_AFTER_GRASP&#45;&gt;/SM_ROOT/EXECUTE_GRASP/GO_BACK_TO_TABLE -->
<g id="edge12" class="edge">
<title>/SM_ROOT/EXECUTE_GRASP/GO_TO_NEUTRAL_AFTER_GRASP&#45;&gt;/SM_ROOT/EXECUTE_GRASP/GO_BACK_TO_TABLE</title>
<g id="a_edge12"><a xlink:href="/SM_ROOT/EXECUTE_GRASP/GO_TO_NEUTRAL_AFTER_GRASP:succeeded:/SM_ROOT/EXECUTE_GRASP/GO_BACK_TO_TABLE">
<path fill="none" stroke="black" stroke-width="2" d="M473,-639.61C473,-627.24 473,-610.37 473,-596.22"/>
<polygon fill="black" stroke="black" stroke-width="2" points="476.5,-596.05 473,-586.05 469.5,-596.05 476.5,-596.05"/>
</a>
</g>
<g id="a_edge12&#45;label"><a xlink:href="/SM_ROOT/EXECUTE_GRASP/GO_TO_NEUTRAL_AFTER_GRASP:succeeded:/SM_ROOT/EXECUTE_GRASP/GO_BACK_TO_TABLE">
<text text-anchor="middle" x="441.5" y="-615.95" font-family="Times,serif" font-size="12.00">succeeded</text>
</a>
</g>
</g>
<!-- /SM_ROOT/EXECUTE_GRASP/GO_BACK_TO_TABLE&#45;&gt;/SM_ROOT/EXECUTE_GRASP:end_execute_grasp -->
<g id="edge13" class="edge">
<title>/SM_ROOT/EXECUTE_GRASP/GO_BACK_TO_TABLE&#45;&gt;/SM_ROOT/EXECUTE_GRASP:end_execute_grasp</title>
<g id="a_edge13"><a xlink:href="/SM_ROOT/EXECUTE_GRASP/GO_BACK_TO_TABLE:succeeded:/SM_ROOT/EXECUTE_GRASP/end_execute_grasp">
<path fill="none" stroke="#000000" stroke-width="2" stroke-opacity="0.333333" d="M473,-549.61C473,-535.24 473,-514.81 473,-499.62"/>
<polygon fill="#000000" fill-opacity="0.333333" stroke="#000000" stroke-width="2" stroke-opacity="0.333333" points="476.5,-499.21 473,-489.21 469.5,-499.21 476.5,-499.21"/>
</a>
</g>
<g id="a_edge13&#45;label"><a xlink:href="/SM_ROOT/EXECUTE_GRASP/GO_BACK_TO_TABLE:succeeded:/SM_ROOT/EXECUTE_GRASP/end_execute_grasp">
<text text-anchor="middle" x="441.5" y="-522.55" font-family="Times,serif" font-size="12.00">succeeded</text>
</a>
</g>
</g>
<!-- /SM_ROOT/EXECUTE_GRASP/GO_BACK_TO_TABLE&#45;&gt;/SM_ROOT/EXECUTE_GRASP/GO_BACK_TO_TABLE -->
<g id="edge14" class="edge">
<title>/SM_ROOT/EXECUTE_GRASP/GO_BACK_TO_TABLE&#45;&gt;/SM_ROOT/EXECUTE_GRASP/GO_BACK_TO_TABLE</title>
<g id="a_edge14"><a xlink:href="/SM_ROOT/EXECUTE_GRASP/GO_BACK_TO_TABLE:aborted:/SM_ROOT/EXECUTE_GRASP/GO_BACK_TO_TABLE">
<path fill="none" stroke="black" stroke-width="2" d="M533.57,-583.1C576.68,-587.93 619.49,-582.9 619.49,-568 619.49,-554.27 583.11,-548.92 543.65,-551.95"/>
<polygon fill="black" stroke="black" stroke-width="2" points="543.2,-548.47 533.57,-552.9 543.86,-555.44 543.2,-548.47"/>
</a>
</g>
<g id="a_edge14&#45;label"><a xlink:href="/SM_ROOT/EXECUTE_GRASP/GO_BACK_TO_TABLE:aborted:/SM_ROOT/EXECUTE_GRASP/GO_BACK_TO_TABLE">
<text text-anchor="middle" x="509.7" y="-586.52" font-family="Times,serif" font-size="12.00">aborted</text>
</a>
</g>
</g>
<!-- /SM_ROOT/HANDOVER -->
<g id="node21" class="node">
<title>/SM_ROOT/HANDOVER</title>
<g id="a_node21"><a xlink:href="/SM_ROOT/HANDOVER" xlink:title="HANDOVER">
<ellipse fill="#ffffff" stroke="#000000" stroke-width="2" cx="726" cy="-478" rx="67.69" ry="18"/>
<text text-anchor="middle" x="726" y="-474.3" font-family="Times,serif" font-size="14.00">HANDOVER</text>
</a>
</g>
</g>
<!-- /SM_ROOT/AFTER_GRASP_USERINPUT&#45;&gt;/SM_ROOT/HANDOVER -->
<g id="edge33" class="edge">
<title>/SM_ROOT/AFTER_GRASP_USERINPUT&#45;&gt;/SM_ROOT/HANDOVER</title>
<g id="a_edge33"><a xlink:href="/SM_ROOT/AFTER_GRASP_USERINPUT:handover:/SM_ROOT/HANDOVER">
<path fill="none" stroke="black" stroke-width="2" d="M787.35,-550.03C775.92,-536.8 759.89,-518.24 747.08,-503.41"/>
<polygon fill="black" stroke="black" stroke-width="2" points="749.54,-500.9 740.35,-495.62 744.24,-505.47 749.54,-500.9"/>
</a>
</g>
<g id="a_edge33&#45;label"><a xlink:href="/SM_ROOT/AFTER_GRASP_USERINPUT:handover:/SM_ROOT/HANDOVER">
<text text-anchor="middle" x="735.09" y="-526.51" font-family="Times,serif" font-size="12.00">handover</text>
</a>
</g>
</g>
<!-- /SM_ROOT/PLACEMENT/__proxy__ -->
<g id="node22" class="node">
<title>/SM_ROOT/PLACEMENT/__proxy__</title>
<g id="a_node22"><a xlink:href="/SM_ROOT/PLACEMENT" xlink:title="PLACEMENT">
<text text-anchor="middle" x="1104" y="-923.6" font-family="Times,serif" font-size="18.00">PLACEMENT</text>
</a>
</g>
</g>
<!-- /SM_ROOT/AFTER_GRASP_USERINPUT&#45;&gt;/SM_ROOT/PLACEMENT/__proxy__ -->
<g id="edge32" class="edge">
<title>/SM_ROOT/AFTER_GRASP_USERINPUT&#45;&gt;/SM_ROOT/PLACEMENT/__proxy__</title>
<g id="a_edge32"><a xlink:href="/SM_ROOT/AFTER_GRASP_USERINPUT:placement:/SM_ROOT/PLACEMENT">
<path fill="none" stroke="black" stroke-width="2" d="M806.12,-586.34C818.56,-635.18 860.14,-775.58 944,-856 944.8,-856.76 945.6,-857.52 946.42,-858.27"/>
<polygon fill="black" stroke="black" stroke-width="2" points="944.15,-860.93 954,-864.83 948.73,-855.64 944.15,-860.93"/>
</a>
</g>
<g id="a_edge32&#45;label"><a xlink:href="/SM_ROOT/AFTER_GRASP_USERINPUT:placement:/SM_ROOT/PLACEMENT">
<text text-anchor="middle" x="828.85" y="-738.8" font-family="Times,serif" font-size="12.00">placement</text>
</a>
</g>
</g>
<!-- /SM_ROOT/HANDOVER&#45;&gt;/SM_ROOT/SETUP/__proxy__ -->
<g id="edge34" class="edge">
<title>/SM_ROOT/HANDOVER&#45;&gt;/SM_ROOT/SETUP/__proxy__</title>
<g id="a_edge34"><a xlink:href="/SM_ROOT/HANDOVER:succeeded:/SM_ROOT/SETUP">
<path fill="none" stroke="black" stroke-width="2" d="M704.17,-460.8C698.23,-447.99 697.41,-429.95 701.71,-415.69"/>
<polygon fill="black" stroke="black" stroke-width="2" points="700.5,-424.35 702.76,-414 694.53,-420.68 700.5,-424.35"/>
</a>
</g>
<g id="a_edge34&#45;label"><a xlink:href="/SM_ROOT/HANDOVER:succeeded:/SM_ROOT/SETUP">
<text text-anchor="middle" x="667.55" y="-441.08" font-family="Times,serif" font-size="12.00">succeeded</text>
</a>
</g>
</g>
<!-- /SM_ROOT/HANDOVER&#45;&gt;/SM_ROOT/SETUP/__proxy__ -->
<g id="edge35" class="edge">
<title>/SM_ROOT/HANDOVER&#45;&gt;/SM_ROOT/SETUP/__proxy__</title>
<g id="a_edge35"><a xlink:href="/SM_ROOT/HANDOVER:preempted:/SM_ROOT/SETUP">
<path fill="none" stroke="black" stroke-width="2" d="M726,-459.6C726,-447.08 726,-430.07 726,-416.38"/>
<polygon fill="black" stroke="black" stroke-width="2" points="729.5,-424 726,-414 722.5,-424 729.5,-424"/>
</a>
</g>
<g id="a_edge35&#45;label"><a xlink:href="/SM_ROOT/HANDOVER:preempted:/SM_ROOT/SETUP">
<text text-anchor="middle" x="693.5" y="-427.06" font-family="Times,serif" font-size="12.00">preempted</text>
</a>
</g>
</g>
<!-- /SM_ROOT/HANDOVER&#45;&gt;/SM_ROOT/SETUP/__proxy__ -->
<g id="edge36" class="edge">
<title>/SM_ROOT/HANDOVER&#45;&gt;/SM_ROOT/SETUP/__proxy__</title>
<g id="a_edge36"><a xlink:href="/SM_ROOT/HANDOVER:aborted:/SM_ROOT/SETUP">
<path fill="none" stroke="black" stroke-width="2" d="M747.83,-460.8C753.77,-447.99 754.59,-429.95 750.29,-415.69"/>
<polygon fill="black" stroke="black" stroke-width="2" points="757.47,-420.68 749.24,-414 751.5,-424.35 757.47,-420.68"/>
</a>
</g>
<g id="a_edge36&#45;label"><a xlink:href="/SM_ROOT/HANDOVER:aborted:/SM_ROOT/SETUP">
<text text-anchor="middle" x="728.95" y="-441.08" font-family="Times,serif" font-size="12.00">aborted</text>
</a>
</g>
</g>
<!-- /SM_ROOT/PLACEMENT/GO_TO_AND_LOOK_AT_PLACEMENT_AREA -->
<g id="node25" class="node">
<title>/SM_ROOT/PLACEMENT/GO_TO_AND_LOOK_AT_PLACEMENT_AREA</title>
<g id="a_node25"><a xlink:href="/SM_ROOT/PLACEMENT/GO_TO_AND_LOOK_AT_PLACEMENT_AREA" xlink:title="GO_TO_AND_LOOK_AT_PLACEMENT_AREA">
<ellipse fill="#ffffff" stroke="#000000" stroke-width="2" cx="1176" cy="-838" rx="213.66" ry="18"/>
<text text-anchor="middle" x="1176" y="-834.3" font-family="Times,serif" font-size="14.00">GO_TO_AND_LOOK_AT_PLACEMENT_AREA</text>
</a>
</g>
</g>
<!-- /SM_ROOT/PLACEMENT/__proxy__&#45;&gt;/SM_ROOT/PLACEMENT/GO_TO_AND_LOOK_AT_PLACEMENT_AREA -->
<g id="edge22" class="edge">
<title>/SM_ROOT/PLACEMENT/__proxy__&#45;&gt;/SM_ROOT/PLACEMENT/GO_TO_AND_LOOK_AT_PLACEMENT_AREA</title>
<g id="a_edge22"><a xlink:href="/SM_ROOT/PLACEMENT/__proxy__::/SM_ROOT/PLACEMENT/GO_TO_AND_LOOK_AT_PLACEMENT_AREA">
<path fill="none" stroke="black" stroke-width="2" d="M1114.94,-913.63C1125.66,-900.53 1142.26,-880.24 1155.45,-864.11"/>
<polygon fill="black" stroke="black" stroke-width="2" points="1158.37,-866.08 1161.99,-856.12 1152.95,-861.65 1158.37,-866.08"/>
</a>
</g>
</g>
<!-- /SM_ROOT/PLACEMENT:end_placement -->
<g id="node23" class="node">
<title>/SM_ROOT/PLACEMENT:end_placement</title>
<g id="a_node23"><a xlink:href="/SM_ROOT/PLACEMENT:end_placement">
<path fill="#fe464f" stroke="#780006" d="M1123.67,-579C1123.67,-579 1084.33,-579 1084.33,-579 1080.67,-579 1077,-575.33 1077,-571.67 1077,-571.67 1077,-564.33 1077,-564.33 1077,-560.67 1080.67,-557 1084.33,-557 1084.33,-557 1123.67,-557 1123.67,-557 1127.33,-557 1131,-560.67 1131,-564.33 1131,-564.33 1131,-571.67 1131,-571.67 1131,-575.33 1127.33,-579 1123.67,-579"/>
</a>
</g>
<text text-anchor="middle" x="1031.5" y="-582.4" font-family="Times,serif" font-size="12.00" fill="#780006">end_placement</text>
</g>
<!-- /SM_ROOT/RETREAT_AFTER_PLACEMENT -->
<g id="node28" class="node">
<title>/SM_ROOT/RETREAT_AFTER_PLACEMENT</title>
<g id="a_node28"><a xlink:href="/SM_ROOT/RETREAT_AFTER_PLACEMENT" xlink:title="RETREAT_AFTER_PLACEMENT">
<ellipse fill="#ffffff" stroke="#000000" stroke-width="2" cx="1044" cy="-478" rx="159.47" ry="18"/>
<text text-anchor="middle" x="1044" y="-474.3" font-family="Times,serif" font-size="14.00">RETREAT_AFTER_PLACEMENT</text>
</a>
</g>
</g>
<!-- /SM_ROOT/PLACEMENT:end_placement&#45;&gt;/SM_ROOT/RETREAT_AFTER_PLACEMENT -->
<g id="edge37" class="edge">
<title>/SM_ROOT/PLACEMENT:end_placement&#45;&gt;/SM_ROOT/RETREAT_AFTER_PLACEMENT</title>
<g id="a_edge37"><a xlink:href="/SM_ROOT/PLACEMENT:end_placement:/SM_ROOT/RETREAT_AFTER_PLACEMENT">
<path fill="none" stroke="black" stroke-width="2" d="M1097.12,-556.91C1088.52,-544.3 1073.49,-522.26 1061.61,-504.83"/>
<polygon fill="black" stroke="black" stroke-width="2" points="1064.26,-502.51 1055.74,-496.22 1058.48,-506.45 1064.26,-502.51"/>
</a>
</g>
<g id="a_edge37&#45;label"><a xlink:href="/SM_ROOT/PLACEMENT:end_placement:/SM_ROOT/RETREAT_AFTER_PLACEMENT">
<text text-anchor="middle" x="1030.91" y="-529.93" font-family="Times,serif" font-size="12.00">end_placement</text>
</a>
</g>
</g>
<!-- /SM_ROOT/PLACEMENT:failed_to_place -->
<g id="node24" class="node">
<title>/SM_ROOT/PLACEMENT:failed_to_place</title>
<g id="a_node24"><a xlink:href="/SM_ROOT/PLACEMENT:failed_to_place">
<path fill="#fe464f" stroke="#780006" d="M1033.67,-579C1033.67,-579 994.33,-579 994.33,-579 990.67,-579 987,-575.33 987,-571.67 987,-571.67 987,-564.33 987,-564.33 987,-560.67 990.67,-557 994.33,-557 994.33,-557 1033.67,-557 1033.67,-557 1037.33,-557 1041,-560.67 1041,-564.33 1041,-564.33 1041,-571.67 1041,-571.67 1041,-575.33 1037.33,-579 1033.67,-579"/>
</a>
</g>
<text text-anchor="middle" x="1032.5" y="-547.4" font-family="Times,serif" font-size="12.00" fill="#780006">failed_to_place</text>
</g>
<!-- /SM_ROOT/PLACEMENT:failed_to_place&#45;&gt;/SM_ROOT/AFTER_GRASP_USERINPUT -->
<g id="edge38" class="edge">
<title>/SM_ROOT/PLACEMENT:failed_to_place&#45;&gt;/SM_ROOT/AFTER_GRASP_USERINPUT</title>
<g id="a_edge38"><a xlink:href="/SM_ROOT/PLACEMENT:failed_to_place:/SM_ROOT/AFTER_GRASP_USERINPUT">
<path fill="none" stroke="black" stroke-width="2" d="M986.78,-568C976.5,-568 966.23,-568 955.95,-568"/>
<polygon fill="black" stroke="black" stroke-width="2" points="955.68,-564.5 945.68,-568 955.68,-571.5 955.68,-564.5"/>
</a>
</g>
<g id="a_edge38&#45;label"><a xlink:href="/SM_ROOT/PLACEMENT:failed_to_place:/SM_ROOT/AFTER_GRASP_USERINPUT">
<text text-anchor="middle" x="1011.57" y="-571.4" font-family="Times,serif" font-size="12.00">failed_to_place</text>
</a>
</g>
</g>
<!-- /SM_ROOT/PLACEMENT/GO_TO_AND_LOOK_AT_PLACEMENT_AREA&#45;&gt;/SM_ROOT/PLACEMENT:failed_to_place -->
<g id="edge16" class="edge">
<title>/SM_ROOT/PLACEMENT/GO_TO_AND_LOOK_AT_PLACEMENT_AREA&#45;&gt;/SM_ROOT/PLACEMENT:failed_to_place</title>
<g id="a_edge16"><a xlink:href="/SM_ROOT/PLACEMENT/GO_TO_AND_LOOK_AT_PLACEMENT_AREA:aborted:/SM_ROOT/PLACEMENT/failed_to_place">
<path fill="none" stroke="#000000" stroke-width="2" stroke-opacity="0.333333" d="M1069.04,-822.33C1035.62,-812.14 1002.24,-794.96 982,-766 943.37,-710.73 981.97,-625.65 1002.7,-588.02"/>
<polygon fill="#000000" fill-opacity="0.333333" stroke="#000000" stroke-width="2" stroke-opacity="0.333333" points="1005.86,-589.54 1007.76,-579.12 999.77,-586.08 1005.86,-589.54"/>
</a>
</g>
<g id="a_edge16&#45;label"><a xlink:href="/SM_ROOT/PLACEMENT/GO_TO_AND_LOOK_AT_PLACEMENT_AREA:aborted:/SM_ROOT/PLACEMENT/failed_to_place">
<text text-anchor="middle" x="942.25" y="-697.15" font-family="Times,serif" font-size="12.00">aborted</text>
</a>
</g>
</g>
<!-- /SM_ROOT/PLACEMENT/FIND_TABLE_PLANES_PLACEMENT -->
<g id="node26" class="node">
<title>/SM_ROOT/PLACEMENT/FIND_TABLE_PLANES_PLACEMENT</title>
<g id="a_node26"><a xlink:href="/SM_ROOT/PLACEMENT/FIND_TABLE_PLANES_PLACEMENT" xlink:title="FIND_TABLE_PLANES_PLACEMENT">
<ellipse fill="#ffffff" stroke="#000000" stroke-width="2" cx="1182" cy="-748" rx="181.97" ry="18"/>
<text text-anchor="middle" x="1182" y="-744.3" font-family="Times,serif" font-size="14.00">FIND_TABLE_PLANES_PLACEMENT</text>
</a>
</g>
</g>
<!-- /SM_ROOT/PLACEMENT/GO_TO_AND_LOOK_AT_PLACEMENT_AREA&#45;&gt;/SM_ROOT/PLACEMENT/FIND_TABLE_PLANES_PLACEMENT -->
<g id="edge17" class="edge">
<title>/SM_ROOT/PLACEMENT/GO_TO_AND_LOOK_AT_PLACEMENT_AREA&#45;&gt;/SM_ROOT/PLACEMENT/FIND_TABLE_PLANES_PLACEMENT</title>
<g id="a_edge17"><a xlink:href="/SM_ROOT/PLACEMENT/GO_TO_AND_LOOK_AT_PLACEMENT_AREA:succeeded:/SM_ROOT/PLACEMENT/FIND_TABLE_PLANES_PLACEMENT">
<path fill="none" stroke="black" stroke-width="2" d="M1177.19,-819.61C1178.03,-807.24 1179.18,-790.37 1180.14,-776.22"/>
<polygon fill="black" stroke="black" stroke-width="2" points="1183.65,-776.27 1180.84,-766.05 1176.67,-775.79 1183.65,-776.27"/>
</a>
</g>
<g id="a_edge17&#45;label"><a xlink:href="/SM_ROOT/PLACEMENT/GO_TO_AND_LOOK_AT_PLACEMENT_AREA:succeeded:/SM_ROOT/PLACEMENT/FIND_TABLE_PLANES_PLACEMENT">
<text text-anchor="middle" x="1147.53" y="-795.95" font-family="Times,serif" font-size="12.00">succeeded</text>
</a>
</g>
</g>
<!-- /SM_ROOT/PLACEMENT/PLACEMENT_PLACE -->
<g id="node27" class="node">
<title>/SM_ROOT/PLACEMENT/PLACEMENT_PLACE</title>
<g id="a_node27"><a xlink:href="/SM_ROOT/PLACEMENT/PLACEMENT_PLACE" xlink:title="PLACEMENT_PLACE">
<ellipse fill="#ffffff" stroke="#000000" stroke-width="2" cx="1109" cy="-658" rx="109.38" ry="18"/>
<text text-anchor="middle" x="1109" y="-654.3" font-family="Times,serif" font-size="14.00">PLACEMENT_PLACE</text>
</a>
</g>
</g>
<!-- /SM_ROOT/PLACEMENT/FIND_TABLE_PLANES_PLACEMENT&#45;&gt;/SM_ROOT/PLACEMENT/PLACEMENT_PLACE -->
<g id="edge18" class="edge">
<title>/SM_ROOT/PLACEMENT/FIND_TABLE_PLANES_PLACEMENT&#45;&gt;/SM_ROOT/PLACEMENT/PLACEMENT_PLACE</title>
<g id="a_edge18"><a xlink:href="/SM_ROOT/PLACEMENT/FIND_TABLE_PLANES_PLACEMENT:succeeded:/SM_ROOT/PLACEMENT/PLACEMENT_PLACE">
<path fill="none" stroke="black" stroke-width="2" d="M1167.92,-730.03C1157.02,-716.88 1141.75,-698.48 1129.49,-683.7"/>
<polygon fill="black" stroke="black" stroke-width="2" points="1132.11,-681.38 1123.03,-675.92 1126.72,-685.85 1132.11,-681.38"/>
</a>
</g>
<g id="a_edge18&#45;label"><a xlink:href="/SM_ROOT/PLACEMENT/FIND_TABLE_PLANES_PLACEMENT:succeeded:/SM_ROOT/PLACEMENT/PLACEMENT_PLACE">
<text text-anchor="middle" x="1113.93" y="-706.31" font-family="Times,serif" font-size="12.00">succeeded</text>
</a>
</g>
</g>
<!-- /SM_ROOT/PLACEMENT/PLACEMENT_PLACE&#45;&gt;/SM_ROOT/PLACEMENT:end_placement -->
<g id="edge19" class="edge">
<title>/SM_ROOT/PLACEMENT/PLACEMENT_PLACE&#45;&gt;/SM_ROOT/PLACEMENT:end_placement</title>
<g id="a_edge19"><a xlink:href="/SM_ROOT/PLACEMENT/PLACEMENT_PLACE:succeeded:/SM_ROOT/PLACEMENT/end_placement">
<path fill="none" stroke="#000000" stroke-width="2" stroke-opacity="0.333333" d="M1108.01,-639.61C1107.2,-625.24 1106.03,-604.81 1105.17,-589.62"/>
<polygon fill="#000000" fill-opacity="0.333333" stroke="#000000" stroke-width="2" stroke-opacity="0.333333" points="1108.64,-588.99 1104.58,-579.21 1101.65,-589.39 1108.64,-588.99"/>
</a>
</g>
<g id="a_edge19&#45;label"><a xlink:href="/SM_ROOT/PLACEMENT/PLACEMENT_PLACE:succeeded:/SM_ROOT/PLACEMENT/end_placement">
<text text-anchor="middle" x="1137.78" y="-612.55" font-family="Times,serif" font-size="12.00">succeeded</text>
</a>
</g>
</g>
<!-- /SM_ROOT/PLACEMENT/PLACEMENT_PLACE&#45;&gt;/SM_ROOT/PLACEMENT:failed_to_place -->
<g id="edge20" class="edge">
<title>/SM_ROOT/PLACEMENT/PLACEMENT_PLACE&#45;&gt;/SM_ROOT/PLACEMENT:failed_to_place</title>
<g id="a_edge20"><a xlink:href="/SM_ROOT/PLACEMENT/PLACEMENT_PLACE:aborted:/SM_ROOT/PLACEMENT/failed_to_place">
<path fill="none" stroke="#000000" stroke-width="2" stroke-opacity="0.333333" d="M1080.31,-640.45C1060.55,-625.32 1036.32,-603 1022.59,-587.34"/>
<polygon fill="#000000" fill-opacity="0.333333" stroke="#000000" stroke-width="2" stroke-opacity="0.333333" points="1025.17,-584.96 1016.14,-579.41 1019.74,-589.38 1025.17,-584.96"/>
</a>
</g>
<g id="a_edge20&#45;label"><a xlink:href="/SM_ROOT/PLACEMENT/PLACEMENT_PLACE:aborted:/SM_ROOT/PLACEMENT/failed_to_place">
<text text-anchor="middle" x="1022.8" y="-615.28" font-family="Times,serif" font-size="12.00">aborted</text>
</a>
</g>
</g>
<!-- /SM_ROOT/PLACEMENT/PLACEMENT_PLACE&#45;&gt;/SM_ROOT/PLACEMENT:failed_to_place -->
<g id="edge21" class="edge">
<title>/SM_ROOT/PLACEMENT/PLACEMENT_PLACE&#45;&gt;/SM_ROOT/PLACEMENT:failed_to_place</title>
<g id="a_edge21"><a xlink:href="/SM_ROOT/PLACEMENT/PLACEMENT_PLACE:preempted:/SM_ROOT/PLACEMENT/failed_to_place">
<path fill="none" stroke="#000000" stroke-width="2" stroke-opacity="0.333333" d="M1101.6,-640.03C1087.96,-624.14 1062.44,-600.57 1041.97,-585"/>
<polygon fill="#000000" fill-opacity="0.333333" stroke="#000000" stroke-width="2" stroke-opacity="0.333333" points="1043.98,-582.13 1033.84,-579.06 1039.85,-587.79 1043.98,-582.13"/>
</a>
</g>
<g id="a_edge21&#45;label"><a xlink:href="/SM_ROOT/PLACEMENT/PLACEMENT_PLACE:preempted:/SM_ROOT/PLACEMENT/failed_to_place">
<text text-anchor="middle" x="1036.8" y="-598.2" font-family="Times,serif" font-size="12.00">preempted</text>
</a>
</g>
</g>
<!-- /SM_ROOT/RETREAT_AFTER_PLACEMENT&#45;&gt;/SM_ROOT/SETUP/__proxy__ -->
<g id="edge39" class="edge">
<title>/SM_ROOT/RETREAT_AFTER_PLACEMENT&#45;&gt;/SM_ROOT/SETUP/__proxy__</title>
<g id="a_edge39"><a xlink:href="/SM_ROOT/RETREAT_AFTER_PLACEMENT:succeeded:/SM_ROOT/SETUP">
<path fill="none" stroke="black" stroke-width="2" d="M984.56,-461.3C936.27,-448.54 867.48,-430.37 813,-415.98"/>
<polygon fill="black" stroke="black" stroke-width="2" points="813.56,-412.51 803,-413.34 811.77,-419.28 813.56,-412.51"/>
</a>
</g>
<g id="a_edge39&#45;label"><a xlink:href="/SM_ROOT/RETREAT_AFTER_PLACEMENT:succeeded:/SM_ROOT/SETUP">
<text text-anchor="middle" x="862.2" y="-440.7" font-family="Times,serif" font-size="12.00">succeeded</text>
</a>
</g>
</g>
</g>
</svg>
