# Blender v2.79 (sub 0) OBJ File: ''
# www.blender.org
mtllib simple_collider.mtl
o Cylinder_Cylinder.003
v 0.005055 -0.035874 -0.083724
v 0.000645 -0.010001 0.107513
v -0.035309 -0.017097 -0.083724
v -0.007984 -0.006606 0.107513
v -0.050653 0.004481 -0.083724
v -0.008888 -0.000746 0.107513
v -0.038989 0.028881 -0.083724
v -0.007575 0.005065 0.107513
v -0.012348 0.032435 -0.083724
v -0.003937 0.007091 0.107513
v 0.032353 0.013157 -0.083724
v 0.005072 0.006571 0.107513
v 0.047751 -0.008384 -0.083724
v 0.009254 0.001372 0.107513
v 0.036420 -0.034118 -0.083724
v 0.006688 -0.006703 0.107513
v 0.006586 -0.036200 0.060952
v -0.035375 -0.016680 0.060952
v -0.049106 0.004749 0.038935
v -0.036981 0.030114 0.038935
v -0.013786 0.033301 0.060952
v 0.032682 0.013261 0.060952
v 0.046796 -0.008624 0.038935
v 0.035017 -0.035376 0.038935
v -0.002771 -0.022289 0.086379
v -0.018161 -0.013545 0.086379
v -0.021852 -0.000469 0.086379
v -0.016146 0.013634 0.086379
v -0.001086 0.019019 0.086379
v 0.015754 0.012121 0.086379
v 0.020661 -0.004808 0.086379
v 0.010995 -0.019200 0.086379
vn -0.3951 -0.7817 0.4826
vn -0.8446 -0.2049 0.4947
vn -0.8264 0.2912 0.4820
vn -0.3295 0.8313 0.4477
vn 0.2481 0.8646 0.4370
vn 0.8346 0.3428 0.4311
vn 0.0000 0.0000 1.0000
vn 0.7735 -0.4211 0.4737
vn 0.2672 -0.8288 0.4916
vn 0.0000 0.0000 -1.0000
vn 0.0409 -0.9991 -0.0059
vn 0.9152 -0.4029 0.0063
vn 0.8276 0.5613 0.0022
vn 0.3960 0.9182 -0.0016
vn -0.1308 0.9914 -0.0075
vn -0.9022 0.4313 0.0104
vn -0.8299 -0.5579 0.0060
vn -0.4218 -0.9067 0.0024
vn 0.3282 -0.8106 0.4850
vn 0.7717 -0.4022 0.4927
vn 0.8552 0.1352 0.5004
vn 0.3738 0.8785 0.2975
vn -0.4592 0.7228 0.5164
vn -0.7965 0.3598 0.4859
vn -0.8506 -0.1001 0.5162
vn -0.4147 -0.8415 0.3462
usemtl None
s off
f 25//1 2//1 4//1 26//1
f 26//2 4//2 6//2 27//2
f 27//3 6//3 8//3 28//3
f 28//4 8//4 10//4 29//4
f 29//5 10//5 12//5 30//5
f 30//6 12//6 14//6 31//6
f 4//7 2//7 16//7 14//7 12//7 10//7 8//7 6//7
f 31//8 14//8 16//8 32//8
f 32//9 16//9 2//9 25//9
f 1//10 3//10 5//10 7//10 9//10 11//10 13//10 15//10
f 15//11 24//11 17//11 1//11
f 13//12 23//12 24//12 15//12
f 11//13 22//13 23//13 13//13
f 9//14 21//14 22//14 11//14
f 7//15 20//15 21//15 9//15
f 5//16 19//16 20//16 7//16
f 3//17 18//17 19//17 5//17
f 1//18 17//18 18//18 3//18
f 24//19 32//19 25//19 17//19
f 23//20 31//20 32//20 24//20
f 22//21 30//21 31//21 23//21
f 21//22 29//22 30//22 22//22
f 20//23 28//23 29//23 21//23
f 19//24 27//24 28//24 20//24
f 18//25 26//25 27//25 19//25
f 17//26 25//26 26//26 18//26
